<?xml version="1.0" encoding="utf-8"?>
<!-- Generator: Adobe Illustrator 26.3.1, SVG Export Plug-In . SVG Version: 6.00 Build 0)  -->
<svg version="1.1" id="a" xmlns="http://www.w3.org/2000/svg" xmlns:xlink="http://www.w3.org/1999/xlink" x="0px" y="0px"
	 viewBox="0 0 355.7 365.8" style="enable-background:new 0 0 355.7 365.8;" xml:space="preserve">
<style type="text/css">
	.st0{fill:#4D4D4F;}
	.st1{fill:#ABD4FF;stroke:#4C7B9E;stroke-width:2.5;stroke-miterlimit:10;}
	.st2{opacity:0.5;fill:#FFFFFF;enable-background:new    ;}
	.st3{fill:#73ABDD;}
	.st4{fill:#7CB8E5;}
	.st5{fill:#7CB8E5;stroke:#4C7B9E;stroke-miterlimit:10;}
	.st6{fill:#4A5156;}
	.st7{fill:#40403F;}
	.st8{fill:#D8D9DA;}
	.st9{fill:#FFFFFF;}
	.st10{fill:#D5D7D8;}
	.st11{fill:#BABCBE;}
	.st12{fill:#616264;}
	.st13{fill:#B8BABC;}
	.st14{fill:#EBEBEC;}
	.st15{fill:#58595B;}
	.st16{fill:#DB595E;}
</style>
<path class="st0" d="M94.7,261.8c-0.8-0.4-7.3,0.4-7.6,0.8c-1.3,2.6-1.8,9.2-1.8,9.2c0.1,0.3,3.2,0.2,6.8-0.3s6.6-1,6.4-1.3
	C98.6,270.2,96.7,264,94.7,261.8L94.7,261.8L94.7,261.8z"/>
<g>
	<path class="st1" d="M342.5,343.5c-1.8-4.9-2.7-10.4-4.7-15.2l0,0c0,0,0,0,0,0c-0.2-0.5-0.5-1.1-0.7-1.6c-1.7-3.8-4.5-10.3-5.8-13
		c-3.7-7.9-7.5-15.8-11.3-23.8c-4.5-9.4-9-18.9-13.4-28.3c-3.7-7.8-7.4-15.7-11.1-23.5c-2.7-5.7-5.4-11.4-8.1-17.1
		c0.2-0.1,0.4-0.2,0.6-0.3c-1.2-2.5-2.4-5-3.6-7.5c-0.6-1.3-1.4-2.5-2.1-3.8c-5.6-0.3-11.2-0.5-16.8-1c-9-0.9-18-2-27-3
		c0,0.1-0.1,0.1-0.1,0.2c0.2,3.2,0.4,6.4,0.7,9.6c0.4,4.2,0.8,8.4,1.2,12.6c0,0,0,0,0,0c0.3,4.8,0.7,9.5,1,14.3
		c0.5,6.9,1,13.8,1.5,20.6c0.1,0.7,0.2,1.3,0.3,2c0,0,0.1,0,0.1,0.1c0.2,3.7,0.4,7.5,0.7,11.2c0.4,5.3,1,37.1,1.7,42.5
		c0.5,3.7,2.9,7.5,6.7,11.3c1.6,1.6,3.1,3.3,6.1,4.5c1.8,0.7,3.2,0.8,4.2,0.1c0.7-0.4,1.3-1,2-1.4c1.7-1.1,4.3-0.7,5.8,1
		c2.5,2.9,4.6,5.8,6.8,8.7c4.8,6.3,9.6-2.4,14.6,3.8c1.3,1.6,3.7,3.2,5.9,4.7c1.8,1.2,3.7,1.2,4.7,0.2c1.4-1.3,2.5-2.6,3.8-4
		c0.4-0.4,0.8-0.8,1.3-1.1c1.6-1,3.6-0.8,5.7,0.7c1.6,1.1,2.9,2.4,4.3,3.6c3.2,2.8,4.4-1.9,8.1,0.8c3.1,2.2,7.1,4.1,10.9,6
		c1.8,0.9,3.9,1.6,6,2.2c1,0.2,2.7,0,3-0.4C348.9,355.3,344,347.5,342.5,343.5z"/>
	<path class="st2" d="M261.3,210.3c-27,0-25.9-7.1-25.9-7.1h6.3c0,0-0.3,5.8,19.6,5.8V210.3L261.3,210.3L261.3,210.3z"/>
	<path class="st2" d="M261.3,210.3c27,0,25.9-7.1,25.9-7.1h-6.3c0,0,0.3,5.8-19.6,5.8V210.3L261.3,210.3L261.3,210.3z"/>
	<g>
		<path class="st3" d="M337.9,328.2c-1.5-3.2-5-11.4-6.5-14.6c-3.7-7.9-7.5-15.8-11.3-23.8c-4.5-9.4-9-18.9-13.4-28.3
			c-3.7-7.8-7.4-15.7-11.1-23.5c-2.9-6.1-5.8-12.2-8.7-18.3c0-0.1-0.2-0.2-0.3-0.3c-0.2,0.1-0.7,0.2-0.7,0.4
			c-0.5,2.2-0.9,4.4-1.3,6.6c-0.4,2.2-0.3,4.5-1,6.6c-0.5,1.6-2.3,1.5-4.6-0.2c-2.4-1.9-4.3-3.9-6.4-5.8c-3.3-3.1-6.5-6.3-9.9-9.4
			c-1.3-1.2-3-2.5-5.3-2.6c-1.2,0-2,0.8-2.8,1.3c-0.2,0.1-0.2,0.4-0.2,0.6c0,3.3-0.1,6.6,0,9.9c0.1,3.4,0.4,6.7,0.5,10.1
			c0,0.3-0.5,0.6-0.7,0.9c-0.6-0.3-1.4-0.6-1.9-0.9c-2.7-2.2-5.3-4.4-7.9-6.6c-1.4-1.1-2.9-2.2-4.3-3.4c0.4,5,0.7,10.1,1.1,15.1
			c0.5,6.9,1,13.8,1.5,20.6c0.1,0.7,0.2,1.3,0.3,2c1.3,0.8,2.6,1.6,4,2.3c3.6,1.9,7.4,2.1,8.8,0.3c1.2-1.6,2-3.3,3-5
			c0.2-0.3,0.5-0.6,0.7-0.9c0.4,0.4,0.8,0.8,1,1.2c5.7,9,11.2,17.9,17.2,26.9c2.4,3.6,5.9,7.2,9,10.8c1,1.2,3,2.2,4.9,2.1
			c1.4-0.1,3-0.8,3.2-1.5c0.7-2.3,1.1-4.8,1.2-7.2c0.2-2.9,0-5.8,0-8.7c0-0.2,0.3-0.4,0.5-0.6c0.3,0.3,0.7,0.5,1,0.8
			c9.8,11.1,19.4,22.2,29.3,33.3C328.8,320.5,333.2,327.8,337.9,328.2z"/>
		<path class="st4" d="M333.8,321.9c-2.6-2.1-5.9-2.6-8.1-5.2c-9.7-11.1-19.2-22.1-28.8-33.2c-0.2-0.3-0.6-0.5-1-0.8
			c-0.2,0.2-0.5,0.4-0.5,0.6c0,2.9,0.1,5.8-0.1,8.7c-0.2,2.5-0.5,4.9-1.2,7.2c-0.2,0.8-1.8,1.4-3.2,1.5c-1.9,0.1-3.9-1-4.9-2.1
			c-3.1-3.6-6.5-7.2-8.9-10.8c-5.9-9-11.3-17.9-16.8-26.9c-0.2-0.4-0.7-0.8-1-1.1c-0.3,0.3-0.6,0.6-0.7,0.9c-1,1.7-1.8,3.5-3,5
			c-1.4,1.7-5.1,1.6-8.7-0.3c-1.4-0.7-2.6-1.5-3.9-2.3c0.2,4.3,0.5,8.5,0.7,12.8c0.4,5.3,1,37.1,1.7,42.5c0.5,3.7,2.9,7.5,6.7,11.3
			c1.6,1.6,3.1,3.3,6.1,4.5c1.8,0.7,3.2,0.8,4.2,0.1c0.7-0.4,1.3-1,2-1.4c1.7-1.1,4.3-0.7,5.8,1c2.5,2.9,4.6,5.8,6.8,8.7
			c4.8,6.3,9.6-2.4,14.6,3.8c1.3,1.6,3.7,3.2,5.9,4.7c1.8,1.2,3.7,1.2,4.7,0.2c1.4-1.3,2.5-2.6,3.8-4c0.4-0.4,0.8-0.8,1.3-1.1
			c1.6-1,3.6-0.8,5.7,0.7c1.6,1.1,2.9,2.4,4.3,3.6c3.2,2.8,4.4-1.9,8.1,0.8c3.1,2.2,7.1,4.1,10.9,6c1.8,0.9,3.9,1.6,6,2.2
			c1,0.2,2.7,0,3-0.4c3.5-4-1.5-11.7-2.9-15.8c-2.3-6.4-3.1-13.8-7-19.6C335,323.1,334.4,322.4,333.8,321.9z"/>
		<path class="st4" d="M240.1,227.8c1.5,1.1,3,2.2,4.5,3.4c2.8,2.2,5.5,4.4,8.2,6.6c0.5,0.4,1.3,0.6,2,1c0.3-0.3,0.7-0.5,0.7-0.9
			c-0.2-3.3-0.5-6.7-0.6-10.1c-0.1-3.3-0.1-6.6-0.1-9.9c0-0.2,0-0.5,0.2-0.6c0.9-0.5,1.7-1.4,2.9-1.3c2.4,0.1,4.2,1.5,5.5,2.6
			c3.5,3.1,6.8,6.3,10.3,9.4c2.1,2,4.1,4,6.6,5.8c2.4,1.8,4.2,1.9,4.7,0.3c0.7-2.1,0.6-4.4,1-6.5c0.4-2.2,0.8-4.4,1.3-6.6
			c0-0.2,0.5-0.3,0.7-0.4c-1.2-2.5-2.4-5-3.6-7.5c-0.6-1.3-1.4-2.5-2.1-3.8c-5.6-0.3-11.2-0.5-16.8-1c-9-0.9-18-2-27-3
			c0,0.1-0.1,0.1-0.1,0.2c0.2,3.2,0.4,6.4,0.7,9.6C239.3,219.5,239.7,223.6,240.1,227.8z"/>
	</g>
	<path class="st5" d="M225.8,322.3c-2.2,3.4-4.5,6.8-6.6,10.3c-0.9,1.4-1.2,3.1-0.9,4.8c0.1,1,0.4,1.9,1.4,2.3c1.1,0.4,2-0.3,2.7-1
		c2-2,2.7-4.5,3-7.2c0.4-2.9,0.7-5.9,1.1-8.9c0-0.4,0-0.8,0.1-1.2C226.4,321.8,226.2,322.1,225.8,322.3
		C225.9,322.3,225.9,322.3,225.8,322.3z"/>
	<path class="st5" d="M243.5,358.8c2.4,1,4.7-0.3,5.3-2.5c0.6-2.3,0.3-4.5-0.4-6.7c-1.1-3.1-2.2-6.1-3.3-9.2
		c-0.1-0.2-0.2-0.4-0.3-0.5c-0.1,0.2-0.3,0.4-0.3,0.6c-1,3.8-2.2,7.5-3.1,11.3c-0.5,1.9-0.2,3.9,0.9,5.6
		C242.6,358,243.2,358.5,243.5,358.8z"/>
	<path class="st5" d="M341.2,313c2.6,0.5,4.5-1.2,4.7-3.5c0.2-2.4-0.5-4.5-1.7-6.5c-1.7-2.8-3.4-5.6-5.1-8.3
		c-0.1-0.2-0.3-0.3-0.4-0.5c-0.1,0.2-0.2,0.4-0.2,0.6c-0.3,3.9-0.7,7.8-0.8,11.7c-0.1,2,0.5,3.9,2,5.4
		C340.1,312.4,340.9,312.8,341.2,313z"/>
	<path class="st5" d="M279.5,359.7c0.4,1,1.1,1.9,2.2,2.6c1.5,1,3.5,0.4,4.4-1.2c1.1-2.1,0.4-3.8-0.7-5.3c-1.6-2.3-3.4-4.6-5.2-6.9
		c-0.1-0.1-0.3-0.2-0.4-0.3c0,0.2-0.1,0.3-0.1,0.5C279.5,352.5,278.1,356.5,279.5,359.7z"/>
	<path class="st5" d="M342.1,269.7c0.9,1.3,3.4,4.8,5.4,4.2c4.1-1.2,0.1-8.1-1.2-9.7c-2.5-3-5.2-6-7.9-8.9c-0.2-0.2-0.4-0.3-0.6-0.4
		c0,0.2,0,0.4,0.1,0.7c1,4,1.3,8.3,3,12.1C341.1,268.2,341.5,268.9,342.1,269.7z"/>
</g>
<g>
	<ellipse class="st6" cx="86.5" cy="237.7" rx="75.3" ry="44.5"/>
	<path class="st7" d="M23.8,251.8c0,0-14.5-13-5.9-30.4c4.6-9.2,22.2-19,22.2-19l0.8-9.1l0.7-101.6c0,0-4.5-4.4-4.5-9.6
		s1.8-39.5,7.4-51.2c4.3-9,12.3-13,36.3-16.3c28.9-3.9,72.2,7.6,110.5,14.8c33.4,6.3,35.6,14.8,36.3,15.6v10.4
		c0,0-2.2,11.1-16.3,13.3c-14.1,2.2-23,0.7-23,0.7l-42.9-6.3c-3.2-0.5-6.1,2.2-5.8,5.4l0.5,6.8v10.4l-6.7,1.5c0,0,2.2,11.1,4.4,11.9
		c2.2,0.7,11.9,11.1,23.7,12.6c11.9,1.5,73.4,15.6,89,19.3c0,0,32.2,6.3,41.5,20.8l3,6.7l4.5,21.6c0.9,4-0.8,8.2-4.1,10.6l-4.9,3.5
		v8.9c0,0-4.5,10.4-28.9,8.9c-24.5-1.5-29.7-7.4-29.7-7.4l-0.7-9.6c0,0-26-14.8-60.1-6.7c0,0-11.9,1.5-17.1,6.7
		c-5.2,5.2-8.9,12.6-8.9,12.6s9.5,4.5,14.1,12.6c5.9,10.4,3,19.3-6.7,33.4c0,0-13.4,20-60.1,22.2C46.1,277.8,28.3,255.5,23.8,251.8
		L23.8,251.8L23.8,251.8z"/>
	<path class="st8" d="M53.1,30c0,0,0.1-7.8,12.2-10c17.7-3.2,125.8-1.4,145.9,29.3c0,0-1.4,7.9-18.7,4.3S88.8,42.4,69.6,39.3
		C62.1,38,51.9,34.1,53.1,30L53.1,30z"/>
	<path class="st9" d="M58.6,29.7c0.1-0.1-0.3,0.3-0.7,0.9c-0.2,0.3-0.3,0.7-0.3,0.7c0,0,0-0.1,0-0.2c0-0.1-0.1-0.1,0,0
		c0.2,0.2,1,0.6,2.2,0.9c1.1,0.3,2.4,0.5,4,0.6c3,0.2,6.7,0.2,10.6,0.2c7.8,0.1,16.6,0.2,25.3,0.5c4.4,0.2,8.7,0.4,12.9,0.6
		c2.1,0.2,4.2,0.3,6.2,0.5c1,0.1,2,0.2,3,0.2c1,0.1,1.9,0.2,2.8,0.3c1.8,0.2,3.8,0.4,5.8,0.7c0.5,0.1,1,0.1,1.5,0.2
		c0.5,0.1,1.1,0.2,1.6,0.2c1,0.2,2.1,0.3,3.1,0.5c4.1,0.7,8.4,1.4,12.7,2.2c8.5,1.6,17.1,3.4,24.7,4.8c7.6,1.4,14.3,2.4,18.9,2.5
		c1.1,0,2.2,0.1,3,0c0.4,0,0.8,0,1.1,0c0.2,0,0.3,0,0.5,0s0.4,0,0.5-0.1c1.3-0.2,2.1-0.3,2.1-0.3c-1.2,0.5-2.5,1.1-3.5,1.3
		c-0.6,0.2-1.1,0.4-1.8,0.5c-0.6,0.1-1.3,0.3-2,0.4c-1.3,0.3-2.7,0.4-4.1,0.6c-1.4,0.1-2.9,0.2-4.4,0.3c-5.9,0.2-12.3,0-18.8-0.6
		c-6.6-0.5-13.4-1.3-20.3-2.2c-3.5-0.4-7-0.9-10.6-1.3c-0.9-0.1-1.8-0.2-2.7-0.3l-0.7-0.1l-0.2,0c0,0-0.1,0,0.1,0h-0.1l-0.3,0
		l-1.4-0.1c-1.8-0.2-3.7-0.4-5.5-0.6C109,41.8,94.9,40.7,81.9,39c-3.3-0.4-6.4-0.8-9.5-1.3c-1.6-0.3-3.1-0.5-4.6-0.8
		c-1.5-0.3-3-0.6-4.4-0.9c-1.4-0.4-2.8-0.8-4-1.4c-1.2-0.6-2.3-1.3-2.8-2.1c-0.2-0.4-0.3-0.7-0.2-0.9c0.1-0.2,0.2-0.3,0.4-0.6
		c0.2-0.2,0.5-0.5,0.8-0.8c0.2-0.1,0.3-0.3,0.5-0.4c0.1-0.1,0.2-0.1,0.3-0.2C58.5,29.8,58.6,29.7,58.6,29.7L58.6,29.7L58.6,29.7z"/>
	<path class="st8" d="M204.4,58.2l1.2,5.3c0.5,2.3,3.1,3.5,5.2,2.4c6.1-3.2,16.3-9.9,13.6-17.3L204.4,58.2L204.4,58.2L204.4,58.2z"
		/>
	<path class="st8" d="M49,89.4c-1.5-2,3.9-50.6,4.8-50.8c0,0,24.1,7.3,54,10.5c30.1,3.2,74.9,10.3,74.9,10.3
		c1.1,0.2,1.9,1.3,1.5,2.4l0,0c-0.8,2.8-3.6,4.5-6.5,3.9c-12.4-2.4-44.3-8.4-59.7-9c-19.3-0.7-21.5,0-30.4,7.4
		c-8.9,7.4-14.2,34.1-11.9,34.1C79.1,98.2,56.2,98.9,49,89.4L49,89.4L49,89.4z"/>
	<path class="st8" d="M95.3,69.3L92.1,99l19.3-1.5l-1.8-32.1c-0.2-3.4-3.8-5.5-6.9-4l-2.9,1.4C97.3,64.1,95.6,66.5,95.3,69.3
		C95.3,69.3,95.3,69.3,95.3,69.3z"/>
	<polygon class="st8" points="50.5,95.3 52.8,107.2 65.1,111.1 66.9,99.7 	"/>
	<path class="st8" d="M53.5,110.1l0.7,116.5c0,0,3.7,13.4,14.8,1.5c11.1-11.9,32.6-35.6,66.8-42.3c34.1-6.7,74.2-2.4,80.8-0.6
		c13.3,3.7,32.7,8.7,23.8-11.3c0,0-1.4-10.2-15.6-13.4c-8.1-1.8-55.6-12.6-77.9-15.6s-44.8-3.8-52.7-8.2
		c-13.3-7.4-19.6-13.3-18.1-21.4L53.5,110.1L53.5,110.1L53.5,110.1z"/>
	<path class="st8" d="M76.5,105.7c-0.3-3.3,42.3-3,51.9-11.1l2.2,9.6C130.6,104.2,78.7,127.2,76.5,105.7L76.5,105.7L76.5,105.7z"/>
	<path class="st10" d="M100.2,118.9c0,0,0.9,0,2.4,0c1.3,0,3.1-0.1,5.2-0.3c2.1-0.2,4.3-0.7,6.5-1.2c1.1-0.3,2.2-0.6,3.2-1
		c0.5-0.2,1-0.4,1.5-0.5c0.5-0.2,0.9-0.4,1.4-0.6c0.9-0.4,1.8-0.8,2.8-1.3c0.5-0.2,1-0.5,1.5-0.8c0.5-0.2,0.9-0.6,1.4-0.9
		c0.9-0.6,1.9-1.2,2.8-1.9c0.4-0.3,0.9-0.7,1.3-1c0.2-0.2,0.4-0.3,0.6-0.5c0.2-0.2,0.4-0.3,0.6-0.5c0.7-0.7,1.4-1.3,2-1.8
		c0.6-0.6,1.2-1.3,1.7-1.8c1-1.1,1.6-1.7,1.6-1.7c0,1.9-0.1,3.9-0.5,5.8c-0.2,0.9-0.5,1.9-0.9,2.8c-0.2,0.5-0.4,1-0.6,1.4
		c-0.2,0.5-0.5,0.9-0.8,1.3c-2.1,3.7-5.7,6.8-10,8.7c-4.4,1.9-9.1,2.2-13.2,1.3c-2.1-0.4-4-1.2-5.7-2.2c-0.8-0.5-1.6-1.1-2.4-1.7
		c-0.4-0.3-0.7-0.6-1.1-0.9c-0.2-0.2-0.3-0.3-0.6-0.5L100.2,118.9L100.2,118.9L100.2,118.9z"/>
	<path class="st11" d="M144.7,117.6c0,0-1.5,0,1.5-6.7c0,0,109.8,23.7,132.8,35.6c23,11.9-13.9,21.8-26.7,16.8
		c0,0,18.5-1.9-20.8-12.3S153.6,129.4,144.7,117.6L144.7,117.6L144.7,117.6z"/>
	<path class="st12" d="M238.5,157.1c0,0-92.7-25.9-97.5-35.5c-2-4-4.9,3-11.9,5.6c-5.7,2.1-19.5,2.3-11.9,4.4
		C117.9,131.8,238.5,157.1,238.5,157.1L238.5,157.1L238.5,157.1z"/>
	<path class="st6" d="M79.1,243.7c0,0,26.7-60.1,92.4-55.6c0,0-26.7,5.6-38.9,43.4c0,0-22.2-21.1-40.1,15.6L79.1,243.7L79.1,243.7
		L79.1,243.7z"/>
	<path class="st9" d="M76.1,121.2c0,0,0,0,0,0.2c0,0.2-0.1,0.6-0.1,1.2c-0.1,1.1,0,2.7,0.5,4.6c0.6,1.9,1.8,4,3.9,5.9
		c2.1,1.9,5,3.6,8.5,4.9c0.9,0.3,1.7,0.6,2.6,0.8c0.4,0.1,0.9,0.3,1.4,0.4c0.5,0.1,1.1,0.2,1.6,0.4c1.1,0.2,2.1,0.5,3.2,0.7
		c1,0.2,2.1,0.4,3.1,0.5c4.4,0.8,8.9,1.4,13.4,2.1c9.1,1.3,18,2.6,25.8,3.8c15.6,2.4,35.9,5.8,52.2,9.6c8.1,1.8,15.2,3.8,20.4,5.3
		c2.5,0.8,4.5,1.4,5.9,1.9c1.4,0.4,2.1,0.7,2.1,0.7c-22.3-2-50.6-4.1-81.9-8.7c-7.8-1.2-15.4-2.5-22.8-4c-3.7-0.8-7.3-1.5-10.8-2.4
		c-1.8-0.4-3.5-0.9-5.2-1.3c-0.9-0.2-1.7-0.5-2.6-0.7l-0.6-0.2l-0.3-0.1l-0.2-0.1l-0.3-0.1l-1.2-0.4c-1.7-0.6-3.2-1-4.9-1.9
		c-0.8-0.4-1.6-0.7-2.4-1.1c-0.8-0.3-1.5-0.9-2.2-1.3c-0.7-0.5-1.5-0.9-2.1-1.4c-0.7-0.5-1.3-1-1.9-1.6c-0.7-0.5-1.2-1.1-1.7-1.7
		c-0.5-0.6-1.1-1.1-1.5-1.8c-1.9-2.4-2.9-5.3-3.1-7.9c0-0.7,0-1.3,0-1.9c0.1-0.6,0.1-1.2,0.3-1.8l0.2-0.9l0.3-0.8
		c0.1-0.3,0.2-0.5,0.3-0.7c0.1-0.1,0.1-0.2,0.2-0.3L76.1,121.2C76,121.3,76.1,121.3,76.1,121.2L76.1,121.2L76.1,121.2z"/>
	<path class="st9" d="M73.5,219.2c1.5-0.8,2.7-2.1,4-3.3c1.3-1.2,2.6-2.5,3.9-3.8c2.7-2.6,5.7-5.1,9-7.5c6.6-4.8,14.4-9,23.1-12.3
		c17.5-6.5,34.8-8.8,47.8-10.9c-6.6-0.8-14.3-1.2-22.8-0.6c-2.1,0.2-4.3,0.4-6.5,0.7c-2.2,0.4-4.5,0.7-6.7,1.2
		c-4.6,0.9-9.2,2.2-13.8,4c-9.3,3.5-17.5,8.6-23.8,14.6c-3.2,3-5.8,6.1-8.1,9.3c-1.1,1.6-2.1,3.1-3.1,4.6
		C75.5,216.5,74.7,218,73.5,219.2L73.5,219.2L73.5,219.2z"/>
	<path class="st8" d="M264.1,167.5c-1.1-0.2-0.3,31.6-0.3,31.6c-0.9-0.9,7.4-0.4,28.9-7.8l-5.6-30
		C287.2,161.3,271.9,168.7,264.1,167.5L264.1,167.5z"/>
	<path class="st13" d="M22.1,220.2c3.4-5.2,9.3-12.2,16.9-12.2l-1.6,14.8c-0.5,4.4,1.6,9.3,5.4,11.6c14.7,8.9,55.2,27,93,3.7
		l8.9-16.7c0,0,13.5,6.8,4.4,17.8c-19.1,23.3-103.7,30.5-127.2-7.3C19.8,228.3,19.8,223.8,22.1,220.2L22.1,220.2L22.1,220.2z"/>
	<path class="st14" d="M103.7,257c7.2,1.5,17.3,0.6,27.2-3.9l1.8-0.8c0.6-0.3,1.2-0.6,1.7-1c1.1-0.7,2.3-1.3,3.3-2
		c1.1-0.7,2.1-1.5,3.1-2.2c0.9-0.8,1.9-1.6,2.7-2.4c0.4-0.4,0.9-0.8,1.3-1.2c0.4-0.4,0.8-0.9,1.1-1.3c0.8-0.8,1.5-1.7,2.1-2.5
		c1.3-1.7,2.3-3.4,3.2-4.9c-1.6,0.9-3.2,2-4.9,3.1c-0.9,0.5-1.8,1-2.7,1.6c-0.4,0.3-0.9,0.6-1.4,0.9c-0.5,0.3-1,0.5-1.4,0.8
		c-1,0.5-1.9,1.1-2.9,1.7c-1,0.5-2.1,1.1-3.1,1.6c-1,0.6-2.1,1-3.2,1.6c-0.5,0.3-1.1,0.5-1.6,0.8c-0.6,0.2-1.1,0.5-1.7,0.8
		C119.3,251.7,110.7,254.8,103.7,257L103.7,257L103.7,257z"/>
	<path class="st9" d="M24.5,221.5c-1.3,3.1-1.6,7.3-0.3,11.6c1.3,4.3,4.2,8.6,8.1,11.9c1.9,1.7,4.1,2.9,6.1,4.1
		c1.1,0.5,2.1,0.9,3.2,1.4c1,0.4,2.1,0.8,3.1,1.1c1,0.3,2,0.5,3,0.8c0.5,0.1,1,0.2,1.5,0.3c0.5,0.1,1,0.1,1.5,0.2
		c1.9,0.2,3.7,0.3,5.3,0.3c-1.4-0.9-2.9-1.8-4.5-2.7c-0.4-0.2-0.8-0.4-1.2-0.7c-0.4-0.2-0.8-0.5-1.2-0.8c-0.8-0.5-1.7-1-2.5-1.5
		c-0.9-0.4-1.7-1-2.6-1.6s-1.7-1.1-2.6-1.6c-1.6-1.3-3.5-2.4-5.1-3.8c-3.3-2.7-6-5.7-7.9-8.9C26.4,228.2,25.1,224.8,24.5,221.5
		L24.5,221.5L24.5,221.5z"/>
	<path class="st13" d="M33.9,249l1.3,12.7c0,0,22.8,12.1,41,13.4l-0.7-12.8C75.6,262.4,42,256.4,33.9,249L33.9,249L33.9,249z"/>
	<path class="st13" d="M111.1,262.4c0,0,28.9-7.4,38.3-19.5l1.3,11.4c0,0-10.1,14.8-38.9,19.5L111.1,262.4z"/>
	<polygon class="st9" points="274.9,167.1 284.3,163.7 287.7,191.3 277.6,196 	"/>
	<path class="st9" d="M282.4,196.6l0.3,6.7c0.1,2.3-1.5,4.4-3.8,4.9l-5.2,1.1l-0.1-10.6L282.4,196.6L282.4,196.6L282.4,196.6z"/>
	<path class="st9" d="M246.9,198.5c0,0-2.8,6.9-1.5,8.2c0.8,0.7,2.9,1.2,4.8,1.5c1.8,0.3,3.4-1.1,3.4-2.9l0-6.1L246.9,198.5
		L246.9,198.5L246.9,198.5z"/>
	<path class="st0" d="M264.5,199.2c-0.8-0.5-7.4-0.3-7.6,0.1c-1.5,2.8-1.3,9.6-1.3,9.7c0.1,0.3,2,0.9,5.7,0.9
		c3.7-0.1,6.6-0.4,6.5-0.8C267.9,209,266.3,201.9,264.5,199.2L264.5,199.2L264.5,199.2z"/>
	<path class="st0" d="M123.4,125.9c-3.2,1.7-13,0.1-16.4-0.5c-5.6-1-10.7-3.4-15.5-6c-2.2-1.1-14-8.2-13.3-1.8c0-0.2,2.2,8,12.4,11
		c6.5,1.9,13.2,2.3,19.9,1.4c3-0.4,5.7-1.1,7.9-1.9c1.8-0.7,3.6-1.4,5.2-2.4C123.5,125.9,123.4,125.9,123.4,125.9L123.4,125.9
		L123.4,125.9z"/>
	<path class="st0" d="M142.2,108.4c0,0-0.3-0.2-0.9-0.5c-0.6-0.3-1.4-0.9-2.2-1.7c-1.7-1.6-3.3-4.4-3.9-7.5c-0.6-3-0.5-6-0.3-8.2
		c0.1-1.1,0.3-2,0.4-2.7c0.1-0.6,0.2-1,0.2-1c0-0.6-2.3-0.9-5-0.7s-4.8,1.2-4.8,2.2c0,0,0,0.1,0.1,0.4c0.1,0.2,0.1,0.6,0.2,1
		c0.2,0.8,0.5,2,0.9,3.4c0.8,2.8,2.2,6.4,4.4,9.5c1.1,1.5,2.3,2.8,3.6,3.7c1.3,1,2.6,1.4,3.7,1.8c1.1,0.2,2,0.3,2.6,0.3
		C141.9,108.4,142.2,108.4,142.2,108.4L142.2,108.4L142.2,108.4z"/>
	<path class="st15" d="M116.6,249.8c-8.6,0.6-19.6,1.4-31.6,0.9c-6-0.2-11.7-0.8-17-1.5c-1.3-0.2-2.6-0.3-3.9-0.5
		c-1.3-0.2-2.5-0.4-3.7-0.5c-1.2-0.2-2.4-0.4-3.5-0.5c-0.6-0.1-1.1-0.2-1.7-0.2c-0.3,0-0.6-0.1-0.8-0.1c-0.3,0-0.6,0-0.8,0
		c0.3,0.1,0.5,0.2,0.7,0.3c0.2,0.1,0.5,0.3,0.7,0.4c0.5,0.3,1,0.6,1.5,0.8c1,0.6,2.1,1.1,3.2,1.7c1.1,0.5,2.3,1.1,3.5,1.6
		c1.2,0.5,2.5,1,3.8,1.4c5.3,1.8,11.3,2.9,17.7,3.2c0.8,0,1.6,0.1,2.4,0.1c0.8,0,1.6,0,2.3,0c1.6,0,3.1-0.1,4.6-0.3
		c1.5-0.2,3-0.3,4.4-0.6c1.4-0.3,2.8-0.6,4.2-0.9c1.4-0.3,2.7-0.7,3.9-1.1s2.5-0.8,3.7-1.2C112.5,251.8,114.7,250.8,116.6,249.8
		L116.6,249.8L116.6,249.8z"/>
	<path class="st15" d="M37.9,241.4c-0.1-2.1-0.5-4.5-0.9-7c-0.4-2.5-0.9-5-1.3-7.6c-0.3-2.5-0.5-4.8-0.1-6.7c0.2-1,0.5-1.9,1-2.9
		c0.5-0.9,1.2-1.8,2-2.6c-1.1-0.1-2.3,0.1-3.6,0.7c-1.2,0.6-2.5,1.5-3.4,2.9c-0.9,1.3-1.6,2.9-1.9,4.6c-0.3,1.6-0.3,3.3-0.1,4.9
		c0.5,3.3,1.7,6.1,3.1,8.4C34.4,238.4,36.1,240.2,37.9,241.4L37.9,241.4L37.9,241.4z"/>
	<path class="st15" d="M141,221.4c0.3,1.9,0.5,4,0.6,6c0,2-0.2,3.9-0.7,5.7c-0.5,1.8-1.5,3.6-2.5,5.4c-0.6,0.8-1.1,1.8-1.7,2.6
		c-0.6,0.8-1.1,1.7-1.6,2.6c1-0.1,2-0.3,3.1-0.6c1.1-0.3,2.1-0.9,3.3-1.5c0.5-0.4,1-0.8,1.6-1.2l0.8-0.7c0.2-0.3,0.5-0.6,0.7-0.8
		c0.2-0.3,0.4-0.6,0.7-0.9s0.4-0.6,0.6-1c0.3-0.7,0.7-1.4,0.9-2.2c1-3.1,0.4-6.4-0.8-8.7C144.6,223.8,142.9,222.2,141,221.4
		L141,221.4L141,221.4z"/>
	<path class="st9" d="M68.2,48.2c-0.5-2.2-7.1-2.7-7.5-1.1c-2.9,10.5-7.5,38.5-7.5,38.8c-0.1,1.3,2.8,2.7,6.5,3.1
		c3.7,0.4,6.7-0.3,6.8-1.6C66.4,87.2,68.6,59.1,68.2,48.2L68.2,48.2L68.2,48.2z"/>
	<polygon class="st11" points="125.4,59.7 128.3,85.9 118.7,89.6 117.8,61.2 	"/>
</g>
<path class="st16" d="M225.2,272.8v-5.4c0-0.1,0.1-0.2,0.1-0.3c0.2-3.3,0.7-6.5,1.5-9.7c1.9-7.4,5.2-14.1,9.9-20.1
	c5.7-7.2,12.8-12.4,21.2-15.9c5.3-2.2,10.8-3.5,16.5-3.9c0.4,0,0.7-0.1,1.1-0.1h5.3c0.1,0,0.1,0.1,0.2,0.1c0.9,0.1,1.9,0.2,2.8,0.2
	c3.5,0.4,6.9,1.1,10.2,2.2c7,2.2,13.2,5.7,18.8,10.4c6.6,5.7,11.4,12.7,14.6,20.8c1.9,4.9,3.1,10,3.5,15.3c0,0.4,0.1,0.8,0.2,1.2
	v5.4c0,0.1-0.1,0.2-0.1,0.3c-0.2,3.3-0.7,6.5-1.5,9.7c-1.9,7.4-5.2,14.1-9.9,20.1c-5.7,7.2-12.8,12.4-21.2,15.9
	c-5.3,2.2-10.8,3.5-16.5,3.9c-0.4,0-0.7,0.1-1.1,0.1h-5.4c-0.1,0-0.2-0.1-0.3-0.1c-1.9-0.2-3.9-0.4-5.8-0.7c-5-0.8-9.7-2.4-14.2-4.6
	c-7.8-3.8-14.4-9.2-19.5-16.2c-5.9-8.2-9.3-17.4-10.1-27.5C225.4,273.5,225.3,273.1,225.2,272.8L225.2,272.8L225.2,272.8z
	 M252.7,237.1c19.5,19.5,38.9,38.9,58.4,58.4c12.2-15.7,12.2-39.2-3.6-54.9C291.6,224.8,268.2,225,252.7,237.1L252.7,237.1
	L252.7,237.1z M303.6,303.1c-19.5-19.5-39-39-58.4-58.4c-12.1,15.7-12,38.5,2.9,54.2C262.8,314.4,286.5,316.1,303.6,303.1
	L303.6,303.1L303.6,303.1z"/>
</svg>
