<?xml version="1.0" encoding="UTF-8"?><svg xmlns="http://www.w3.org/2000/svg" width="1366" height="708" xmlns:xlink="http://www.w3.org/1999/xlink" viewBox="0 0 1366 708"><defs><style>.cls-1{fill:url(#_ÂÁ_Ï_ÌÌ_È_____ËÂÌÚ_28-39);}.cls-1,.cls-2,.cls-3,.cls-4,.cls-5,.cls-6,.cls-7,.cls-8,.cls-9,.cls-10,.cls-11,.cls-12,.cls-13,.cls-14,.cls-15,.cls-16,.cls-17,.cls-18,.cls-19,.cls-20,.cls-21,.cls-22,.cls-23,.cls-24,.cls-25,.cls-26,.cls-27,.cls-28,.cls-29,.cls-30,.cls-31,.cls-32,.cls-33,.cls-34,.cls-35,.cls-36,.cls-37,.cls-38,.cls-39,.cls-40,.cls-41,.cls-42,.cls-43,.cls-44,.cls-45,.cls-46,.cls-47,.cls-48,.cls-49,.cls-50,.cls-51,.cls-52,.cls-53{mix-blend-mode:color-dodge;}.cls-2{fill:url(#_ÂÁ_Ï_ÌÌ_È_____ËÂÌÚ_28-28);}.cls-3{fill:url(#_ÂÁ_Ï_ÌÌ_È_____ËÂÌÚ_28-24);}.cls-54{fill:url(#_ÂÁ_Ï_ÌÌ_È_____ËÂÌÚ_283-21);}.cls-4{fill:url(#_ÂÁ_Ï_ÌÌ_È_____ËÂÌÚ_28-38);}.cls-55{fill:url(#_ÂÁ_Ï_ÌÌ_È_____ËÂÌÚ_46);}.cls-5{fill:url(#_ÂÁ_Ï_ÌÌ_È_____ËÂÌÚ_7-2);}.cls-56{fill:url(#_ÂÁ_Ï_ÌÌ_È_____ËÂÌÚ_283-5);}.cls-57{fill:url(#_ÂÁ_Ï_ÌÌ_È_____ËÂÌÚ_283-22);}.cls-6{fill:url(#_ÂÁ_Ï_ÌÌ_È_____ËÂÌÚ_28-8);}.cls-58,.cls-59,.cls-60{fill:#fff;}.cls-61{fill:url(#_ÂÁ_Ï_ÌÌ_È_____ËÂÌÚ_152-8);}.cls-7{fill:url(#_ÂÁ_Ï_ÌÌ_È_____ËÂÌÚ_28-44);}.cls-62{fill:url(#_ÂÁ_Ï_ÌÌ_È_____ËÂÌÚ_152-4);}.cls-8{fill:url(#_ÂÁ_Ï_ÌÌ_È_____ËÂÌÚ_28-17);}.cls-63{fill:#cfd8e8;}.cls-63,.cls-64,.cls-65,.cls-66{mix-blend-mode:multiply;}.cls-59{opacity:.45;stroke:#000;}.cls-59,.cls-67{stroke-miterlimit:10;}.cls-9{fill:url(#_ÂÁ_Ï_ÌÌ_È_____ËÂÌÚ_208-2);}.cls-10{fill:url(#_ÂÁ_Ï_ÌÌ_È_____ËÂÌÚ_28-19);}.cls-68{fill:#808587;}.cls-69{fill:#ccb596;}.cls-70{fill:#bfbfbf;}.cls-11{fill:url(#_ÂÁ_Ï_ÌÌ_È_____ËÂÌÚ_22);}.cls-64{fill:url(#_ÂÁ_Ï_ÌÌ_È_____ËÂÌÚ_242);}.cls-12{fill:url(#_ÂÁ_Ï_ÌÌ_È_____ËÂÌÚ_28-2);}.cls-13{fill:url(#_ÂÁ_Ï_ÌÌ_È_____ËÂÌÚ_22-2);}.cls-71{fill:url(#_ÂÁ_Ï_ÌÌ_È_____ËÂÌÚ_152-2);}.cls-60{opacity:.3;}.cls-72{fill:url(#_ÂÁ_Ï_ÌÌ_È_____ËÂÌÚ_283-36);}.cls-73{fill:#d8efe6;}.cls-74{fill:url(#_ÂÁ_Ï_ÌÌ_È_____ËÂÌÚ_283-2);}.cls-75{fill:url(#_ÂÁ_Ï_ÌÌ_È_____ËÂÌÚ_283-17);}.cls-65{fill:url(#_ÂÁ_Ï_ÌÌ_È_____ËÂÌÚ_36);}.cls-14{fill:url(#_ÂÁ_Ï_ÌÌ_È_____ËÂÌÚ_7);}.cls-76{fill:url(#_ÂÁ_Ï_ÌÌ_È_____ËÂÌÚ_283-18);}.cls-77{isolation:isolate;}.cls-78{fill:url(#_ÂÁ_Ï_ÌÌ_È_____ËÂÌÚ_152-6);}.cls-79{fill:url(#_ÂÁ_Ï_ÌÌ_È_____ËÂÌÚ_152-3);}.cls-80{fill:#b2b4b5;}.cls-15{fill:url(#_ÂÁ_Ï_ÌÌ_È_____ËÂÌÚ_28-6);}.cls-81{fill:#949eaf;}.cls-82{fill:#ea2524;}.cls-16{fill:url(#_ÂÁ_Ï_ÌÌ_È_____ËÂÌÚ_28-42);}.cls-17{fill:url(#_ÂÁ_Ï_ÌÌ_È_____ËÂÌÚ_28-30);}.cls-18{fill:url(#_ÂÁ_Ï_ÌÌ_È_____ËÂÌÚ_28-4);}.cls-19{fill:url(#_ÂÁ_Ï_ÌÌ_È_____ËÂÌÚ_28-15);}.cls-83{fill:url(#_ÂÁ_Ï_ÌÌ_È_____ËÂÌÚ_283);}.cls-20{fill:url(#_ÂÁ_Ï_ÌÌ_È_____ËÂÌÚ_28-26);}.cls-21{fill:url(#_ÂÁ_Ï_ÌÌ_È_____ËÂÌÚ_28-37);}.cls-84{fill:url(#_ÂÁ_Ï_ÌÌ_È_____ËÂÌÚ_283-30);}.cls-85{fill:url(#_ÂÁ_Ï_ÌÌ_È_____ËÂÌÚ_283-14);}.cls-86{fill:url(#_ÂÁ_Ï_ÌÌ_È_____ËÂÌÚ_283-16);}.cls-22{fill:url(#_ÂÁ_Ï_ÌÌ_È_____ËÂÌÚ_28-14);}.cls-87{fill:#8c95a8;}.cls-88{fill:url(#_ÂÁ_Ï_ÌÌ_È_____ËÂÌÚ_283-26);}.cls-23{fill:url(#_ÂÁ_Ï_ÌÌ_È_____ËÂÌÚ_28-12);}.cls-24{fill:url(#_ÂÁ_Ï_ÌÌ_È_____ËÂÌÚ_208-3);}.cls-25{fill:url(#_ÂÁ_Ï_ÌÌ_È_____ËÂÌÚ_28-25);}.cls-89{fill:url(#_ÂÁ_Ï_ÌÌ_È_____ËÂÌÚ_283-4);}.cls-26{fill:url(#_ÂÁ_Ï_ÌÌ_È_____ËÂÌÚ_28-32);}.cls-90{fill:url(#_ÂÁ_Ï_ÌÌ_È_____ËÂÌÚ_143-2);}.cls-91{fill:#e6e6e6;}.cls-92{fill:url(#_ÂÁ_Ï_ÌÌ_È_____ËÂÌÚ_283-11);}.cls-93{fill:url(#_ÂÁ_Ï_ÌÌ_È_____ËÂÌÚ_283-38);}.cls-94{fill:url(#_ÂÁ_Ï_ÌÌ_È_____ËÂÌÚ_283-34);}.cls-95{fill:url(#_ÂÁ_Ï_ÌÌ_È_____ËÂÌÚ_283-27);}.cls-96{fill:#859499;}.cls-27{fill:url(#_ÂÁ_Ï_ÌÌ_È_____ËÂÌÚ_28-16);}.cls-66{fill:#ea9494;}.cls-28{fill:url(#_ÂÁ_Ï_ÌÌ_È_____ËÂÌÚ_28-5);}.cls-29{fill:url(#_ÂÁ_Ï_ÌÌ_È_____ËÂÌÚ_28-31);}.cls-30{fill:url(#_ÂÁ_Ï_ÌÌ_È_____ËÂÌÚ_28-3);}.cls-31{fill:url(#_ÂÁ_Ï_ÌÌ_È_____ËÂÌÚ_208);}.cls-32{fill:url(#_ÂÁ_Ï_ÌÌ_È_____ËÂÌÚ_28-21);}.cls-97{fill:url(#_ÂÁ_Ï_ÌÌ_È_____ËÂÌÚ_283-20);}.cls-33{fill:url(#_ÂÁ_Ï_ÌÌ_È_____ËÂÌÚ_28-43);}.cls-34{fill:url(#_ÂÁ_Ï_ÌÌ_È_____ËÂÌÚ_28-10);}.cls-98{fill:url(#_ÂÁ_Ï_ÌÌ_È_____ËÂÌÚ_283-37);}.cls-99{fill:url(#_ÂÁ_Ï_ÌÌ_È_____ËÂÌÚ_283-10);}.cls-100{fill:url(#_ÂÁ_Ï_ÌÌ_È_____ËÂÌÚ_283-6);}.cls-101{fill:url(#_ÂÁ_Ï_ÌÌ_È_____ËÂÌÚ_152);}.cls-102{fill:url(#_ÂÁ_Ï_ÌÌ_È_____ËÂÌÚ_283-39);}.cls-103{fill:url(#_ÂÁ_Ï_ÌÌ_È_____ËÂÌÚ_283-19);}.cls-104{fill:#c7ceba;}.cls-105{fill:url(#_ÂÁ_Ï_ÌÌ_È_____ËÂÌÚ_283-23);}.cls-35{fill:url(#_ÂÁ_Ï_ÌÌ_È_____ËÂÌÚ_28-13);}.cls-36{fill:url(#_ÂÁ_Ï_ÌÌ_È_____ËÂÌÚ_28-35);}.cls-106{fill:url(#_ÂÁ_Ï_ÌÌ_È_____ËÂÌÚ_283-3);}.cls-107{fill:#f42222;}.cls-108{fill:url(#_ÂÁ_Ï_ÌÌ_È_____ËÂÌÚ_283-28);}.cls-37{fill:url(#_ÂÁ_Ï_ÌÌ_È_____ËÂÌÚ_28-27);}.cls-109{fill:#a7b1c4;}.cls-110{fill:url(#_ÂÁ_Ï_ÌÌ_È_____ËÂÌÚ_283-13);}.cls-38{fill:url(#_ÂÁ_Ï_ÌÌ_È_____ËÂÌÚ_28);}.cls-111{fill:url(#_ÂÁ_Ï_ÌÌ_È_____ËÂÌÚ_283-31);}.cls-39{fill:url(#_ÂÁ_Ï_ÌÌ_È_____ËÂÌÚ_28-9);}.cls-112{fill:url(#_ÂÁ_Ï_ÌÌ_È_____ËÂÌÚ_283-8);}.cls-40{fill:url(#_ÂÁ_Ï_ÌÌ_È_____ËÂÌÚ_28-36);}.cls-41{fill:url(#_ÂÁ_Ï_ÌÌ_È_____ËÂÌÚ_28-23);}.cls-42{fill:url(#_ÂÁ_Ï_ÌÌ_È_____ËÂÌÚ_28-22);}.cls-43{fill:url(#_ÂÁ_Ï_ÌÌ_È_____ËÂÌÚ_28-33);}.cls-44{fill:url(#_ÂÁ_Ï_ÌÌ_È_____ËÂÌÚ_208-5);}.cls-113{fill:url(#_ÂÁ_Ï_ÌÌ_È_____ËÂÌÚ_283-33);}.cls-114{fill:url(#_ÂÁ_Ï_ÌÌ_È_____ËÂÌÚ_283-35);}.cls-115{fill:url(#_ÂÁ_Ï_ÌÌ_È_____ËÂÌÚ_152-5);}.cls-116{fill:url(#_ÂÁ_Ï_ÌÌ_È_____ËÂÌÚ_152-10);}.cls-117{fill:#828da3;}.cls-67{fill:#796ee5;stroke:#796ee5;stroke-width:4px;}.cls-118{fill:url(#_ÂÁ_Ï_ÌÌ_È_____ËÂÌÚ_283-32);}.cls-45{fill:url(#_ÂÁ_Ï_ÌÌ_È_____ËÂÌÚ_28-34);}.cls-119{fill:url(#_ÂÁ_Ï_ÌÌ_È_____ËÂÌÚ_152-9);}.cls-46{fill:url(#_ÂÁ_Ï_ÌÌ_È_____ËÂÌÚ_208-4);}.cls-47{fill:url(#_ÂÁ_Ï_ÌÌ_È_____ËÂÌÚ_28-40);}.cls-120{fill:url(#_ÂÁ_Ï_ÌÌ_È_____ËÂÌÚ_283-29);}.cls-121{fill:url(#_ÂÁ_Ï_ÌÌ_È_____ËÂÌÚ_143);}.cls-122{fill:url(#_ÂÁ_Ï_ÌÌ_È_____ËÂÌÚ_283-7);}.cls-48{fill:url(#_ÂÁ_Ï_ÌÌ_È_____ËÂÌÚ_28-41);}.cls-123{fill:url(#_ÂÁ_Ï_ÌÌ_È_____ËÂÌÚ_283-9);}.cls-124{fill:#8080a1;}.cls-49{fill:url(#_ÂÁ_Ï_ÌÌ_È_____ËÂÌÚ_28-18);}.cls-125{fill:url(#_ÂÁ_Ï_ÌÌ_È_____ËÂÌÚ_283-12);}.cls-50{fill:url(#_ÂÁ_Ï_ÌÌ_È_____ËÂÌÚ_28-29);}.cls-126{fill:url(#_ÂÁ_Ï_ÌÌ_È_____ËÂÌÚ_283-25);}.cls-51{fill:url(#_ÂÁ_Ï_ÌÌ_È_____ËÂÌÚ_28-7);}.cls-127{fill:#697185;}.cls-128{fill:url(#_ÂÁ_Ï_ÌÌ_È_____ËÂÌÚ_283-15);}.cls-52{fill:url(#_ÂÁ_Ï_ÌÌ_È_____ËÂÌÚ_28-11);}.cls-129{fill:url(#_ÂÁ_Ï_ÌÌ_È_____ËÂÌÚ_283-24);}.cls-130{fill:url(#_ÂÁ_Ï_ÌÌ_È_____ËÂÌÚ_152-7);}.cls-53{fill:url(#_ÂÁ_Ï_ÌÌ_È_____ËÂÌÚ_28-20);}</style><radialGradient id="_ÂÁ_Ï_ÌÌ_È_____ËÂÌÚ_36" cx="2872.19" cy="728.19" fx="2872.19" fy="728.19" r="954.5" gradientTransform="translate(-2116.01 -653.92) scale(1.26 1.73)" gradientUnits="userSpaceOnUse"><stop offset="0" stop-color="#fff"/><stop offset="1" stop-color="#bcc8ce"/></radialGradient><linearGradient id="_ÂÁ_Ï_ÌÌ_È_____ËÂÌÚ_152" x1="1266.59" y1="26.44" x2="-51.07" y2="340.72" gradientTransform="matrix(1, 0, 0, 1, 0, 0)" gradientUnits="userSpaceOnUse"><stop offset="0" stop-color="#7b939f"/><stop offset=".83" stop-color="#143b4c"/></linearGradient><linearGradient id="_ÂÁ_Ï_ÌÌ_È_____ËÂÌÚ_152-2" x1="1268.69" y1="26.85" x2="-51.42" y2="341.72" xlink:href="#_ÂÁ_Ï_ÌÌ_È_____ËÂÌÚ_152"/><linearGradient id="_ÂÁ_Ï_ÌÌ_È_____ËÂÌÚ_152-3" x1="641.79" y1="-67.02" x2="416" y2="185.86" xlink:href="#_ÂÁ_Ï_ÌÌ_È_____ËÂÌÚ_152"/><linearGradient id="_ÂÁ_Ï_ÌÌ_È_____ËÂÌÚ_152-4" x1="331.12" y1="-90.59" x2="321.89" y2="75.48" xlink:href="#_ÂÁ_Ï_ÌÌ_È_____ËÂÌÚ_152"/><linearGradient id="_ÂÁ_Ï_ÌÌ_È_____ËÂÌÚ_143" x1="316.15" y1="163.15" x2="316.15" y2="257" gradientTransform="matrix(1, 0, 0, 1, 0, 0)" gradientUnits="userSpaceOnUse"><stop offset="0" stop-color="#27acbb"/><stop offset=".92" stop-color="#def5fc"/></linearGradient><linearGradient id="_ÂÁ_Ï_ÌÌ_È_____ËÂÌÚ_152-5" x1="371.88" y1="154.78" x2="364.44" y2="197.18" xlink:href="#_ÂÁ_Ï_ÌÌ_È_____ËÂÌÚ_152"/><linearGradient id="_ÂÁ_Ï_ÌÌ_È_____ËÂÌÚ_152-6" x1="357.01" y1="245.86" x2="339.31" y2="325.74" xlink:href="#_ÂÁ_Ï_ÌÌ_È_____ËÂÌÚ_152"/><linearGradient id="_ÂÁ_Ï_ÌÌ_È_____ËÂÌÚ_152-7" x1="396.62" y1="154.78" x2="389.18" y2="197.18" xlink:href="#_ÂÁ_Ï_ÌÌ_È_____ËÂÌÚ_152"/><linearGradient id="_ÂÁ_Ï_ÌÌ_È_____ËÂÌÚ_152-8" x1="375.65" y1="248.07" x2="405.08" y2="341.59" xlink:href="#_ÂÁ_Ï_ÌÌ_È_____ËÂÌÚ_152"/><radialGradient id="_ÂÁ_Ï_ÌÌ_È_____ËÂÌÚ_208" cx="1750.59" cy="354.44" fx="1750.59" fy="354.44" r="249.33" gradientTransform="translate(-2116.01 -653.92) scale(1.26 1.73)" gradientUnits="userSpaceOnUse"><stop offset="0" stop-color="#ffe398"/><stop offset="1" stop-color="#000"/></radialGradient><radialGradient id="_ÂÁ_Ï_ÌÌ_È_____ËÂÌÚ_208-2" cx="1758.61" cy="390.79" fx="1758.61" fy="390.79" r="230.24" xlink:href="#_ÂÁ_Ï_ÌÌ_È_____ËÂÌÚ_208"/><radialGradient id="_ÂÁ_Ï_ÌÌ_È_____ËÂÌÚ_208-3" cx="1774.65" cy="439.45" fx="1774.65" fy="439.45" r="187.83" xlink:href="#_ÂÁ_Ï_ÌÌ_È_____ËÂÌÚ_208"/><linearGradient id="_ÂÁ_Ï_ÌÌ_È_____ËÂÌÚ_152-9" x1="430.08" y1="-90.59" x2="420.86" y2="75.48" xlink:href="#_ÂÁ_Ï_ÌÌ_È_____ËÂÌÚ_152"/><linearGradient id="_ÂÁ_Ï_ÌÌ_È_____ËÂÌÚ_143-2" x1="415.12" x2="415.12" xlink:href="#_ÂÁ_Ï_ÌÌ_È_____ËÂÌÚ_143"/><radialGradient id="_ÂÁ_Ï_ÌÌ_È_____ËÂÌÚ_208-4" cx="1829.34" fx="1829.34" r="249.33" xlink:href="#_ÂÁ_Ï_ÌÌ_È_____ËÂÌÚ_208"/><radialGradient id="_ÂÁ_Ï_ÌÌ_È_____ËÂÌÚ_208-5" cx="1837.36" cy="390.79" fx="1837.36" fy="390.79" r="230.24" xlink:href="#_ÂÁ_Ï_ÌÌ_È_____ËÂÌÚ_208"/><linearGradient id="_ÂÁ_Ï_ÌÌ_È_____ËÂÌÚ_242" x1="38.7" y1="268.73" x2="606.17" y2="204.54" gradientTransform="matrix(1, 0, 0, 1, 0, 0)" gradientUnits="userSpaceOnUse"><stop offset="0" stop-color="#7b939f"/><stop offset=".83" stop-color="#fff"/></linearGradient><radialGradient id="_ÂÁ_Ï_ÌÌ_È_____ËÂÌÚ_22" cx="1999.03" cy="45.24" fx="1999.03" fy="45.24" r="560.76" gradientTransform="translate(-2116.01 -653.92) scale(1.26 1.73)" gradientUnits="userSpaceOnUse"><stop offset="0" stop-color="#ccd1ea"/><stop offset="1" stop-color="#000"/></radialGradient><radialGradient id="_ÂÁ_Ï_ÌÌ_È_____ËÂÌÚ_22-2" cx="2003.08" cy="45.76" fx="2003.08" fy="45.76" r="559.7" xlink:href="#_ÂÁ_Ï_ÌÌ_È_____ËÂÌÚ_22"/><linearGradient id="_ÂÁ_Ï_ÌÌ_È_____ËÂÌÚ_152-10" x1="11124.06" y1="14.09" x2="11133.58" y2="125.61" gradientTransform="translate(11484.71) rotate(-180) scale(1 -1)" xlink:href="#_ÂÁ_Ï_ÌÌ_È_____ËÂÌÚ_152"/><linearGradient id="_ÂÁ_Ï_ÌÌ_È_____ËÂÌÚ_46" x1="11164.3" y1="44.12" x2="11064.88" y2="54.4" gradientTransform="translate(11484.71) rotate(-180) scale(1 -1)" gradientUnits="userSpaceOnUse"><stop offset="0" stop-color="#fffcdb"/><stop offset="1" stop-color="#ffd69c"/></linearGradient><linearGradient id="_ÂÁ_Ï_ÌÌ_È_____ËÂÌÚ_283" x1="620.53" y1="233.81" x2="884.96" y2="233.81" gradientTransform="matrix(1, 0, 0, 1, 0, 0)" gradientUnits="userSpaceOnUse"><stop offset="0" stop-color="#ff192b"/><stop offset="1" stop-color="#ff4b43"/></linearGradient><radialGradient id="_ÂÁ_Ï_ÌÌ_È_____ËÂÌÚ_28" cx="2266.5" cy="390.22" fx="2266.5" fy="390.22" r="369.45" gradientTransform="translate(-2116.01 -653.92) scale(1.26 1.73)" gradientUnits="userSpaceOnUse"><stop offset="0" stop-color="#f6e1d6"/><stop offset="1" stop-color="#000"/></radialGradient><linearGradient id="_ÂÁ_Ï_ÌÌ_È_____ËÂÌÚ_283-2" y1="227.39" y2="227.39" xlink:href="#_ÂÁ_Ï_ÌÌ_È_____ËÂÌÚ_283"/><linearGradient id="_ÂÁ_Ï_ÌÌ_È_____ËÂÌÚ_283-3" x1="613.55" y1="263.34" x2="894.12" y2="263.34" xlink:href="#_ÂÁ_Ï_ÌÌ_È_____ËÂÌÚ_283"/><linearGradient id="_ÂÁ_Ï_ÌÌ_È_____ËÂÌÚ_283-4" x1="613.55" y1="255.93" x2="894.12" y2="255.93" xlink:href="#_ÂÁ_Ï_ÌÌ_È_____ËÂÌÚ_283"/><linearGradient id="_ÂÁ_Ï_ÌÌ_È_____ËÂÌÚ_283-5" x1="600.74" y1="357.94" x2="910.29" y2="357.94" xlink:href="#_ÂÁ_Ï_ÌÌ_È_____ËÂÌÚ_283"/><linearGradient id="_ÂÁ_Ï_ÌÌ_È_____ËÂÌÚ_283-6" x1="604.54" y1="327.25" x2="908.1" y2="327.25" xlink:href="#_ÂÁ_Ï_ÌÌ_È_____ËÂÌÚ_283"/><linearGradient id="_ÂÁ_Ï_ÌÌ_È_____ËÂÌÚ_283-7" x1="600.86" y1="350.7" x2="910.41" y2="350.7" xlink:href="#_ÂÁ_Ï_ÌÌ_È_____ËÂÌÚ_283"/><linearGradient id="_ÂÁ_Ï_ÌÌ_È_____ËÂÌÚ_283-8" x1="604.54" y1="319.16" x2="908.1" y2="319.16" xlink:href="#_ÂÁ_Ï_ÌÌ_È_____ËÂÌÚ_283"/><linearGradient id="_ÂÁ_Ï_ÌÌ_È_____ËÂÌÚ_283-9" x1="606.95" y1="294.16" x2="900.92" y2="294.16" xlink:href="#_ÂÁ_Ï_ÌÌ_È_____ËÂÌÚ_283"/><linearGradient id="_ÂÁ_Ï_ÌÌ_È_____ËÂÌÚ_283-10" x1="606.95" y1="286.28" x2="900.92" y2="286.28" xlink:href="#_ÂÁ_Ï_ÌÌ_È_____ËÂÌÚ_283"/><linearGradient id="_ÂÁ_Ï_ÌÌ_È_____ËÂÌÚ_283-11" x1="1139.02" y1="210.08" x2="1133.96" y2="115.14" xlink:href="#_ÂÁ_Ï_ÌÌ_È_____ËÂÌÚ_283"/><linearGradient id="_ÂÁ_Ï_ÌÌ_È_____ËÂÌÚ_283-12" x1="864.43" y1="210.46" x2="1080.77" y2="223.65" xlink:href="#_ÂÁ_Ï_ÌÌ_È_____ËÂÌÚ_283"/><linearGradient id="_ÂÁ_Ï_ÌÌ_È_____ËÂÌÚ_283-13" x1="1160.45" y1="241.37" x2="1156.19" y2="161.36" xlink:href="#_ÂÁ_Ï_ÌÌ_È_____ËÂÌÚ_283"/><linearGradient id="_ÂÁ_Ï_ÌÌ_È_____ËÂÌÚ_283-14" x1="891.39" y1="240.6" x2="1103.39" y2="253.52" xlink:href="#_ÂÁ_Ï_ÌÌ_È_____ËÂÌÚ_283"/><linearGradient id="_ÂÁ_Ï_ÌÌ_È_____ËÂÌÚ_283-15" x1="1182.49" y1="271.06" x2="1177.43" y2="176.13" xlink:href="#_ÂÁ_Ï_ÌÌ_È_____ËÂÌÚ_283"/><linearGradient id="_ÂÁ_Ï_ÌÌ_È_____ËÂÌÚ_283-16" x1="908.2" y1="271.46" x2="1124.4" y2="284.65" xlink:href="#_ÂÁ_Ï_ÌÌ_È_____ËÂÌÚ_283"/><linearGradient id="_ÂÁ_Ï_ÌÌ_È_____ËÂÌÚ_283-17" x1="1204.71" y1="305.27" x2="1199.95" y2="215.9" xlink:href="#_ÂÁ_Ï_ÌÌ_È_____ËÂÌÚ_283"/><linearGradient id="_ÂÁ_Ï_ÌÌ_È_____ËÂÌÚ_283-18" x1="930.38" y1="305.08" x2="1146.52" y2="318.26" xlink:href="#_ÂÁ_Ï_ÌÌ_È_____ËÂÌÚ_283"/><linearGradient id="_ÂÁ_Ï_ÌÌ_È_____ËÂÌÚ_283-19" x1="1223.43" y1="335.18" x2="1218.59" y2="244.41" xlink:href="#_ÂÁ_Ï_ÌÌ_È_____ËÂÌÚ_283"/><linearGradient id="_ÂÁ_Ï_ÌÌ_È_____ËÂÌÚ_283-20" x1="953.72" y1="335.22" x2="1169.85" y2="348.4" xlink:href="#_ÂÁ_Ï_ÌÌ_È_____ËÂÌÚ_283"/><radialGradient id="_ÂÁ_Ï_ÌÌ_È_____ËÂÌÚ_7" cx="2521.03" cy="167.69" fx="2521.03" fy="167.69" r="460.13" gradientTransform="translate(-2116.01 -653.92) scale(1.26 1.73)" gradientUnits="userSpaceOnUse"><stop offset="0" stop-color="#fff"/><stop offset="1" stop-color="#000"/></radialGradient><radialGradient id="_ÂÁ_Ï_ÌÌ_È_____ËÂÌÚ_28-2" cx="2587.82" cy="512.75" fx="2587.82" fy="512.75" r="295.47" xlink:href="#_ÂÁ_Ï_ÌÌ_È_____ËÂÌÚ_28"/><radialGradient id="_ÂÁ_Ï_ÌÌ_È_____ËÂÌÚ_28-3" cx="2577.92" cy="512.75" fx="2577.92" fy="512.75" r="283.62" xlink:href="#_ÂÁ_Ï_ÌÌ_È_____ËÂÌÚ_28"/><radialGradient id="_ÂÁ_Ï_ÌÌ_È_____ËÂÌÚ_28-4" cx="2570.84" cy="512.75" fx="2570.84" fy="512.75" r="565.14" xlink:href="#_ÂÁ_Ï_ÌÌ_È_____ËÂÌÚ_28"/><radialGradient id="_ÂÁ_Ï_ÌÌ_È_____ËÂÌÚ_28-5" cx="2496.83" cy="507.9" fx="2496.83" fy="507.9" r="447.79" xlink:href="#_ÂÁ_Ï_ÌÌ_È_____ËÂÌÚ_28"/><radialGradient id="_ÂÁ_Ï_ÌÌ_È_____ËÂÌÚ_28-6" cx="2434.26" cy="507.9" fx="2434.26" fy="507.9" r="816.02" xlink:href="#_ÂÁ_Ï_ÌÌ_È_____ËÂÌÚ_28"/><radialGradient id="_ÂÁ_Ï_ÌÌ_È_____ËÂÌÚ_28-7" cx="2492.7" cy="507.9" fx="2492.7" fy="507.9" r="813.44" xlink:href="#_ÂÁ_Ï_ÌÌ_È_____ËÂÌÚ_28"/><radialGradient id="_ÂÁ_Ï_ÌÌ_È_____ËÂÌÚ_28-8" cx="2605.01" cy="486.87" fx="2605.01" fy="486.87" r="378.42" xlink:href="#_ÂÁ_Ï_ÌÌ_È_____ËÂÌÚ_28"/><radialGradient id="_ÂÁ_Ï_ÌÌ_È_____ËÂÌÚ_28-9" cx="2623.89" cy="486.88" fx="2623.89" fy="486.88" r="433.6" xlink:href="#_ÂÁ_Ï_ÌÌ_È_____ËÂÌÚ_28"/><radialGradient id="_ÂÁ_Ï_ÌÌ_È_____ËÂÌÚ_28-10" cx="2718.49" cy="486.88" fx="2718.49" fy="486.88" r="378.42" xlink:href="#_ÂÁ_Ï_ÌÌ_È_____ËÂÌÚ_28"/><radialGradient id="_ÂÁ_Ï_ÌÌ_È_____ËÂÌÚ_28-11" cx="2718.49" cy="486.87" fx="2718.49" fy="486.87" r="378.42" xlink:href="#_ÂÁ_Ï_ÌÌ_È_____ËÂÌÚ_28"/><radialGradient id="_ÂÁ_Ï_ÌÌ_È_____ËÂÌÚ_28-12" cx="2576.2" cy="454.34" fx="2576.2" fy="454.34" r="420.41" xlink:href="#_ÂÁ_Ï_ÌÌ_È_____ËÂÌÚ_28"/><radialGradient id="_ÂÁ_Ï_ÌÌ_È_____ËÂÌÚ_28-13" cx="2576.52" cy="454.34" fx="2576.52" fy="454.34" r="420.42" xlink:href="#_ÂÁ_Ï_ÌÌ_È_____ËÂÌÚ_28"/><radialGradient id="_ÂÁ_Ï_ÌÌ_È_____ËÂÌÚ_28-14" cx="2519.3" cy="454.34" fx="2519.3" fy="454.34" r="1053.17" xlink:href="#_ÂÁ_Ï_ÌÌ_È_____ËÂÌÚ_28"/><radialGradient id="_ÂÁ_Ï_ÌÌ_È_____ËÂÌÚ_28-15" cx="2531.63" cy="432.78" fx="2531.63" fy="432.78" r="387.39" xlink:href="#_ÂÁ_Ï_ÌÌ_È_____ËÂÌÚ_28"/><radialGradient id="_ÂÁ_Ï_ÌÌ_È_____ËÂÌÚ_28-16" cx="2563.58" cy="432.78" fx="2563.58" fy="432.78" r="392.26" xlink:href="#_ÂÁ_Ï_ÌÌ_È_____ËÂÌÚ_28"/><radialGradient id="_ÂÁ_Ï_ÌÌ_È_____ËÂÌÚ_28-17" cx="2569.2" cy="432.78" fx="2569.2" fy="432.78" r="387.39" xlink:href="#_ÂÁ_Ï_ÌÌ_È_____ËÂÌÚ_28"/><radialGradient id="_ÂÁ_Ï_ÌÌ_È_____ËÂÌÚ_28-18" cx="2395.63" cy="432.78" fx="2395.63" fy="432.78" r="1378.56" xlink:href="#_ÂÁ_Ï_ÌÌ_È_____ËÂÌÚ_28"/><radialGradient id="_ÂÁ_Ï_ÌÌ_È_____ËÂÌÚ_28-19" cx="2579.42" cy="415.17" fx="2579.42" fy="415.17" r="352.49" gradientTransform="translate(-2802.65 -653.92) scale(1.37 1.73)" xlink:href="#_ÂÁ_Ï_ÌÌ_È_____ËÂÌÚ_28"/><radialGradient id="_ÂÁ_Ï_ÌÌ_È_____ËÂÌÚ_28-20" cx="2797.81" cy="433.42" fx="2797.81" fy="433.42" r="349.5" gradientTransform="translate(-3361.31 -659.13) scale(1.46 1.74)" xlink:href="#_ÂÁ_Ï_ÌÌ_È_____ËÂÌÚ_28"/><radialGradient id="_ÂÁ_Ï_ÌÌ_È_____ËÂÌÚ_28-21" cx="2912.19" cy="458.76" fx="2912.19" fy="458.76" r="347.94" gradientTransform="translate(-3684.03 -754.06) scale(1.52 1.89)" xlink:href="#_ÂÁ_Ï_ÌÌ_È_____ËÂÌÚ_28"/><radialGradient id="_ÂÁ_Ï_ÌÌ_È_____ËÂÌÚ_28-22" cx="2984.63" cy="490.83" fx="2984.63" fy="490.83" r="346.95" gradientTransform="translate(-3902.09 -1056.45) scale(1.55 2.34)" xlink:href="#_ÂÁ_Ï_ÌÌ_È_____ËÂÌÚ_28"/><linearGradient id="_ÂÁ_Ï_ÌÌ_È_____ËÂÌÚ_283-21" y1="227.39" y2="227.39" xlink:href="#_ÂÁ_Ï_ÌÌ_È_____ËÂÌÚ_283"/><linearGradient id="_ÂÁ_Ï_ÌÌ_È_____ËÂÌÚ_283-22" x1="613.55" y1="263.34" x2="894.12" y2="263.34" xlink:href="#_ÂÁ_Ï_ÌÌ_È_____ËÂÌÚ_283"/><linearGradient id="_ÂÁ_Ï_ÌÌ_È_____ËÂÌÚ_283-23" x1="613.55" y1="255.93" x2="894.12" y2="255.93" xlink:href="#_ÂÁ_Ï_ÌÌ_È_____ËÂÌÚ_283"/><linearGradient id="_ÂÁ_Ï_ÌÌ_È_____ËÂÌÚ_283-24" x1="600.74" y1="357.94" x2="910.29" y2="357.94" xlink:href="#_ÂÁ_Ï_ÌÌ_È_____ËÂÌÚ_283"/><linearGradient id="_ÂÁ_Ï_ÌÌ_È_____ËÂÌÚ_283-25" x1="604.54" y1="327.25" x2="908.1" y2="327.25" xlink:href="#_ÂÁ_Ï_ÌÌ_È_____ËÂÌÚ_283"/><linearGradient id="_ÂÁ_Ï_ÌÌ_È_____ËÂÌÚ_283-26" x1="600.86" y1="350.7" x2="910.41" y2="350.7" xlink:href="#_ÂÁ_Ï_ÌÌ_È_____ËÂÌÚ_283"/><linearGradient id="_ÂÁ_Ï_ÌÌ_È_____ËÂÌÚ_283-27" x1="604.54" y1="319.16" x2="908.1" y2="319.16" xlink:href="#_ÂÁ_Ï_ÌÌ_È_____ËÂÌÚ_283"/><linearGradient id="_ÂÁ_Ï_ÌÌ_È_____ËÂÌÚ_283-28" x1="606.95" y1="294.16" x2="900.92" y2="294.16" xlink:href="#_ÂÁ_Ï_ÌÌ_È_____ËÂÌÚ_283"/><linearGradient id="_ÂÁ_Ï_ÌÌ_È_____ËÂÌÚ_283-29" x1="606.95" y1="286.28" x2="900.92" y2="286.28" xlink:href="#_ÂÁ_Ï_ÌÌ_È_____ËÂÌÚ_283"/><linearGradient id="_ÂÁ_Ï_ÌÌ_È_____ËÂÌÚ_283-30" x1="1139.02" y1="210.08" x2="1133.96" y2="115.14" xlink:href="#_ÂÁ_Ï_ÌÌ_È_____ËÂÌÚ_283"/><linearGradient id="_ÂÁ_Ï_ÌÌ_È_____ËÂÌÚ_283-31" x1="864.43" y1="210.46" x2="1080.77" y2="223.65" xlink:href="#_ÂÁ_Ï_ÌÌ_È_____ËÂÌÚ_283"/><linearGradient id="_ÂÁ_Ï_ÌÌ_È_____ËÂÌÚ_283-32" x1="1160.45" y1="241.37" x2="1156.19" y2="161.36" xlink:href="#_ÂÁ_Ï_ÌÌ_È_____ËÂÌÚ_283"/><linearGradient id="_ÂÁ_Ï_ÌÌ_È_____ËÂÌÚ_283-33" x1="891.39" y1="240.6" x2="1103.39" y2="253.52" xlink:href="#_ÂÁ_Ï_ÌÌ_È_____ËÂÌÚ_283"/><linearGradient id="_ÂÁ_Ï_ÌÌ_È_____ËÂÌÚ_283-34" x1="1182.49" y1="271.06" x2="1177.43" y2="176.13" xlink:href="#_ÂÁ_Ï_ÌÌ_È_____ËÂÌÚ_283"/><linearGradient id="_ÂÁ_Ï_ÌÌ_È_____ËÂÌÚ_283-35" x1="908.2" y1="271.46" x2="1124.4" y2="284.65" xlink:href="#_ÂÁ_Ï_ÌÌ_È_____ËÂÌÚ_283"/><linearGradient id="_ÂÁ_Ï_ÌÌ_È_____ËÂÌÚ_283-36" x1="1204.71" y1="305.27" x2="1199.95" y2="215.9" xlink:href="#_ÂÁ_Ï_ÌÌ_È_____ËÂÌÚ_283"/><linearGradient id="_ÂÁ_Ï_ÌÌ_È_____ËÂÌÚ_283-37" x1="930.38" y1="305.08" x2="1146.52" y2="318.26" xlink:href="#_ÂÁ_Ï_ÌÌ_È_____ËÂÌÚ_283"/><linearGradient id="_ÂÁ_Ï_ÌÌ_È_____ËÂÌÚ_283-38" x1="1223.43" y1="335.18" x2="1218.59" y2="244.41" xlink:href="#_ÂÁ_Ï_ÌÌ_È_____ËÂÌÚ_283"/><linearGradient id="_ÂÁ_Ï_ÌÌ_È_____ËÂÌÚ_283-39" x1="953.72" y1="335.22" x2="1169.85" y2="348.4" xlink:href="#_ÂÁ_Ï_ÌÌ_È_____ËÂÌÚ_283"/><radialGradient id="_ÂÁ_Ï_ÌÌ_È_____ËÂÌÚ_7-2" cx="2521.73" cy="171.96" fx="2521.73" fy="171.96" r="455.63" xlink:href="#_ÂÁ_Ï_ÌÌ_È_____ËÂÌÚ_7"/><radialGradient id="_ÂÁ_Ï_ÌÌ_È_____ËÂÌÚ_28-23" cx="2587.82" cy="512.75" fx="2587.82" fy="512.75" r="295.47" xlink:href="#_ÂÁ_Ï_ÌÌ_È_____ËÂÌÚ_28"/><radialGradient id="_ÂÁ_Ï_ÌÌ_È_____ËÂÌÚ_28-24" cx="2577.92" cy="512.75" fx="2577.92" fy="512.75" r="283.62" xlink:href="#_ÂÁ_Ï_ÌÌ_È_____ËÂÌÚ_28"/><radialGradient id="_ÂÁ_Ï_ÌÌ_È_____ËÂÌÚ_28-25" cx="2570.84" cy="512.75" fx="2570.84" fy="512.75" r="565.14" xlink:href="#_ÂÁ_Ï_ÌÌ_È_____ËÂÌÚ_28"/><radialGradient id="_ÂÁ_Ï_ÌÌ_È_____ËÂÌÚ_28-26" cx="2496.83" cy="507.9" fx="2496.83" fy="507.9" r="447.79" xlink:href="#_ÂÁ_Ï_ÌÌ_È_____ËÂÌÚ_28"/><radialGradient id="_ÂÁ_Ï_ÌÌ_È_____ËÂÌÚ_28-27" cx="2434.26" cy="507.9" fx="2434.26" fy="507.9" r="816.02" xlink:href="#_ÂÁ_Ï_ÌÌ_È_____ËÂÌÚ_28"/><radialGradient id="_ÂÁ_Ï_ÌÌ_È_____ËÂÌÚ_28-28" cx="2492.7" cy="507.9" fx="2492.7" fy="507.9" r="813.44" xlink:href="#_ÂÁ_Ï_ÌÌ_È_____ËÂÌÚ_28"/><radialGradient id="_ÂÁ_Ï_ÌÌ_È_____ËÂÌÚ_28-29" cx="2605.01" cy="486.87" fx="2605.01" fy="486.87" r="378.42" xlink:href="#_ÂÁ_Ï_ÌÌ_È_____ËÂÌÚ_28"/><radialGradient id="_ÂÁ_Ï_ÌÌ_È_____ËÂÌÚ_28-30" cx="2623.89" cy="486.88" fx="2623.89" fy="486.88" r="433.6" xlink:href="#_ÂÁ_Ï_ÌÌ_È_____ËÂÌÚ_28"/><radialGradient id="_ÂÁ_Ï_ÌÌ_È_____ËÂÌÚ_28-31" cx="2718.49" cy="486.88" fx="2718.49" fy="486.88" r="378.42" xlink:href="#_ÂÁ_Ï_ÌÌ_È_____ËÂÌÚ_28"/><radialGradient id="_ÂÁ_Ï_ÌÌ_È_____ËÂÌÚ_28-32" cx="2718.49" cy="486.87" fx="2718.49" fy="486.87" r="378.42" xlink:href="#_ÂÁ_Ï_ÌÌ_È_____ËÂÌÚ_28"/><radialGradient id="_ÂÁ_Ï_ÌÌ_È_____ËÂÌÚ_28-33" cx="2634.94" cy="486.87" fx="2634.94" fy="486.87" r="703.73" xlink:href="#_ÂÁ_Ï_ÌÌ_È_____ËÂÌÚ_28"/><radialGradient id="_ÂÁ_Ï_ÌÌ_È_____ËÂÌÚ_28-34" cx="2576.2" cy="454.34" fx="2576.2" fy="454.34" r="420.41" xlink:href="#_ÂÁ_Ï_ÌÌ_È_____ËÂÌÚ_28"/><radialGradient id="_ÂÁ_Ï_ÌÌ_È_____ËÂÌÚ_28-35" cx="2576.52" cy="454.34" fx="2576.52" fy="454.34" r="420.42" xlink:href="#_ÂÁ_Ï_ÌÌ_È_____ËÂÌÚ_28"/><radialGradient id="_ÂÁ_Ï_ÌÌ_È_____ËÂÌÚ_28-36" cx="2519.3" cy="454.34" fx="2519.3" fy="454.34" r="1053.17" xlink:href="#_ÂÁ_Ï_ÌÌ_È_____ËÂÌÚ_28"/><radialGradient id="_ÂÁ_Ï_ÌÌ_È_____ËÂÌÚ_28-37" cx="2531.63" cy="432.78" fx="2531.63" fy="432.78" r="387.39" xlink:href="#_ÂÁ_Ï_ÌÌ_È_____ËÂÌÚ_28"/><radialGradient id="_ÂÁ_Ï_ÌÌ_È_____ËÂÌÚ_28-38" cx="2563.58" cy="432.78" fx="2563.58" fy="432.78" r="392.26" xlink:href="#_ÂÁ_Ï_ÌÌ_È_____ËÂÌÚ_28"/><radialGradient id="_ÂÁ_Ï_ÌÌ_È_____ËÂÌÚ_28-39" cx="2569.2" cy="432.78" fx="2569.2" fy="432.78" r="387.39" xlink:href="#_ÂÁ_Ï_ÌÌ_È_____ËÂÌÚ_28"/><radialGradient id="_ÂÁ_Ï_ÌÌ_È_____ËÂÌÚ_28-40" cx="2395.63" cy="432.78" fx="2395.63" fy="432.78" r="1378.56" xlink:href="#_ÂÁ_Ï_ÌÌ_È_____ËÂÌÚ_28"/><radialGradient id="_ÂÁ_Ï_ÌÌ_È_____ËÂÌÚ_28-41" cx="2579.42" cy="415.17" fx="2579.42" fy="415.17" r="352.49" gradientTransform="translate(-2802.65 -653.92) scale(1.37 1.73)" xlink:href="#_ÂÁ_Ï_ÌÌ_È_____ËÂÌÚ_28"/><radialGradient id="_ÂÁ_Ï_ÌÌ_È_____ËÂÌÚ_28-42" cx="2797.81" cy="433.42" fx="2797.81" fy="433.42" r="349.5" gradientTransform="translate(-3361.31 -659.13) scale(1.46 1.74)" xlink:href="#_ÂÁ_Ï_ÌÌ_È_____ËÂÌÚ_28"/><radialGradient id="_ÂÁ_Ï_ÌÌ_È_____ËÂÌÚ_28-43" cx="2912.19" cy="458.76" fx="2912.19" fy="458.76" r="347.94" gradientTransform="translate(-3684.03 -754.06) scale(1.52 1.89)" xlink:href="#_ÂÁ_Ï_ÌÌ_È_____ËÂÌÚ_28"/><radialGradient id="_ÂÁ_Ï_ÌÌ_È_____ËÂÌÚ_28-44" cx="2984.63" cy="490.83" fx="2984.63" fy="490.83" r="346.95" gradientTransform="translate(-3902.09 -1056.45) scale(1.55 2.34)" xlink:href="#_ÂÁ_Ï_ÌÌ_È_____ËÂÌÚ_28"/></defs><g class="cls-77"><g id="BasketBall_Background"><g><polygon class="cls-80" points="288.27 438.37 189.25 423.31 180.17 -187.2 1378.33 -184.27 1394.36 434.94 1143.07 443.36 288.27 438.37"/><polygon class="cls-70" points="1373.73 414.57 1362.59 -181.34 1426.22 -233.81 1682.91 -233.81 1682.91 -29.11 1682.91 497.86 1373.73 414.57"/><polygon class="cls-69" points="1528.37 521.05 1666.27 558.07 1642.14 483.17 1373.5 414.85 1099.64 416.8 1320.49 461.04 1528.37 521.05"/><polygon class="cls-69" points="1552.97 801.64 1640.94 490.69 1160.04 381.27 535.91 381.41 267.2 411.24 -126.86 584.36 -112.04 774.44 1552.97 801.64"/><polygon class="cls-70" points="189.53 422.93 186.53 -187.2 126.73 -233.81 -119.74 -233.81 -119.74 587.45 189.53 422.93"/><polygon class="cls-69" points="-58.83 612.17 -119.39 611.84 -119.74 587.35 -58.6 554.59 190.77 421.75 400.89 421.89 374.92 447.7 70.06 552.64 -58.83 612.17"/><polygon class="cls-65" points="1590.73 -151.87 1553.97 -233.81 1481.87 -229.93 1313.57 -132.35 1313.5 -181.34 190.23 -181.14 120.96 -231.88 1384.25 -233.81 1640.94 -233.81 1640.94 -29.11 1640.94 497.86 1590.73 -151.87"/><polygon class="cls-101" points="458.24 105.78 271.46 104.43 271.66 378.72 457.75 378.72 458.24 105.78"/><polygon class="cls-71" points="458.24 103.83 271.46 104.43 271.66 378.72 458.24 380.43 458.24 103.83"/><polygon class="cls-79" points="369.17 103.83 363.36 104.43 363.36 378.72 369.16 378.72 369.17 103.83"/><polygon class="cls-69" points="271.8 378.72 194.74 405.49 466.78 403.85 476.67 380.43 271.8 378.72"/><polygon class="cls-68" points="271.8 378.72 248.29 386.78 243.34 73.12 457.54 78.98 458.24 104.35 271.46 104.43 271.8 378.72"/><rect class="cls-62" x="280.1" y="122.89" width="72.1" height="111.7"/><rect class="cls-121" x="288.58" y="131.44" width="55.14" height="92.87"/><g><polygon class="cls-115" points="359.46 277.98 349.2 277.98 347.48 241.41 361.17 241.41 359.46 277.98"/><polygon class="cls-78" points="358.57 280.93 350.09 280.93 348.67 241.41 359.98 241.41 358.57 280.93"/></g><g><polygon class="cls-130" points="384.2 277.98 373.94 277.98 372.23 241.41 385.91 241.41 384.2 277.98"/><polygon class="cls-61" points="383.31 280.93 374.83 280.93 373.41 241.41 384.72 241.41 383.31 280.93"/></g><polygon class="cls-31" points="304.14 219.95 325.34 135.31 302.72 134.82 293.18 219.95 304.14 219.95"/><polygon class="cls-9" points="321.1 219.95 338.07 157.99 311.56 155.55 305.55 219.95 321.1 219.95"/><polygon class="cls-24" points="312.27 138.24 311.91 149.69 339.84 152.13 342.31 148.97 341.25 137.75 312.27 138.24"/><rect class="cls-119" x="379.07" y="122.89" width="72.1" height="111.7"/><rect class="cls-90" x="387.55" y="131.44" width="55.14" height="92.87"/><polygon class="cls-46" points="403.1 219.95 424.31 135.31 401.69 134.82 392.15 219.95 403.1 219.95"/><polygon class="cls-44" points="420.07 219.95 437.03 157.99 410.53 155.55 404.52 219.95 420.07 219.95"/><polygon class="cls-64" points="458.24 104.35 271.46 104.43 271.8 378.72 288.11 378.48 290.94 120.61 454.47 116.06 457.77 203.68 458.24 104.35"/><polygon class="cls-96" points="243.34 73.12 271.46 104.43 458.24 104.35 457.54 73.12 243.34 73.12"/><polygon class="cls-11" points="442.69 131.44 458.24 380.75 372 379.32 387.55 131.44 442.69 131.44"/><polygon class="cls-13" points="343.72 131.44 346.55 379.3 266.13 380.43 288.58 131.44 343.72 131.44"/><polygon class="cls-116" points="314.46 63.45 400.35 63.45 400.35 34.18 315 34.38 314.46 63.45"/><polygon class="cls-55" points="320.82 54.82 393.98 54.82 394.33 41.11 321.15 40.84 320.82 54.82"/></g></g><g id="bleachers"><g id="Bleachers"><polygon class="cls-127" points="1336.92 264.8 1330.56 283.83 974.26 286.76 975.46 267.89 1336.92 264.8"/><polygon class="cls-127" points="1366.14 298.63 1362.73 318.63 988.64 323.19 990.99 299.77 1366.14 298.63"/><polygon class="cls-127" points="950.23 259.44 976.74 267.73 975.15 293.34 991.94 299.12 989.58 323.19 1010.79 331.64 1388.65 330.34 1383.58 349.21 1014.56 351.16 1018.33 353.11 1409.62 355.71 1407.26 388.01 1014.56 390.19 989.21 383.64 973.79 359.94 938.92 292.61 950.23 259.44"/><g><path class="cls-109" d="M865.7,247.73l56.2,1.39s21.26,6.23,18.75,6.23-76.96-1.39-76.96-1.39l2.01-6.23Z"/><polygon class="cls-117" points="941.36 255.35 937.46 277.51 862.18 278.21 861.68 253.96 941.36 255.35"/></g><g><path class="cls-109" d="M876.21,275.43l61.18,1.73s18.89,3.58,16.38,3.58-79.56,.93-79.56,.93l2.01-6.23Z"/><polygon class="cls-117" points="954 280.66 946.87 303.43 873.53 302.7 872.2 281.67 954 280.66"/></g><g><path class="cls-109" d="M889.76,301.76l56.2,1.39s20.54,3.07,20.52,3.23c0,.07-78.73,1.62-78.73,1.62l2.01-6.23Z"/><polygon class="cls-117" points="966.48 306.37 961.02 332.23 887.75 330.16 885.75 307.99 966.48 306.37"/></g><g><path class="cls-109" d="M903.81,328.77l56.2,1.39s24.09,6.23,21.58,6.23-79.79-1.39-79.79-1.39l2.01-6.23Z"/><polygon class="cls-117" points="981.59 336.39 975.07 359.25 899.8 359.94 899.8 335 981.59 336.39"/></g><g><path class="cls-109" d="M892.74,353.17l81.41,1.39s24.09,6.23,21.58,6.23-105-1.39-105-1.39l2.01-6.23Z"/><polygon class="cls-117" points="995.73 360.78 989.21 383.64 888.73 384.34 888.73 359.4 995.73 360.78"/></g><polygon class="cls-109" points="623.95 255.04 623.71 236.88 882.55 237.03 881.06 253.55 623.95 255.04"/><polygon class="cls-127" points="624.19 255.37 623.71 236.52 882.55 237.03 881.06 253.55 877.83 253.33 878.27 242.95 626.82 243.15 627.06 254.71 624.19 255.37"/><polygon class="cls-83" points="622.78 238.68 620.53 230.31 884.96 228.95 883.76 238.2 622.78 238.68"/><polygon class="cls-66" points="622.78 238.68 620.53 230.31 885.19 228.62 883.52 238.2 622.78 238.68"/><polygon class="cls-38" points="624.9 237.7 623.36 233.24 883.07 230.57 880.69 236.25 624.9 237.7"/><polygon class="cls-74" points="620.53 230.31 642.79 224.99 867.69 224.47 884.96 228.95 620.53 230.31"/><polygon class="cls-109" points="617.26 286.36 617 266.66 891.52 266.82 889.9 284.74 617.26 286.36"/><polygon class="cls-127" points="617.52 286.71 617 266.27 891.52 266.82 889.9 284.74 886.4 284.5 886.87 273.25 620.37 273.46 620.63 286 617.52 286.71"/><polygon class="cls-106" points="615.98 268.61 613.55 259.54 894.12 258.06 892.83 268.09 615.98 268.61"/><polygon class="cls-66" points="615.98 268.61 613.55 259.54 894.38 257.7 892.57 268.09 615.98 268.61"/><polygon class="cls-89" points="613.55 259.54 624.26 253.05 882.46 252.33 894.12 258.06 613.55 259.54"/><polygon class="cls-109" points="612.4 319.45 610.62 297.7 898.15 297.87 896.42 316.95 612.4 319.45"/><polygon class="cls-127" points="612.05 319.2 610.47 297.32 898.15 297.87 896.42 316.95 892.7 316.7 893.2 304.71 614.21 304.94 614.49 318.29 612.05 319.2"/><polygon class="cls-109" points="608.04 387.94 606.2 364.05 906.17 364.05 903.96 388.96 608.04 387.94"/><polygon class="cls-56" points="603.01 364.13 909.15 364.13 910.29 351.76 600.74 354.85 603.01 364.13"/><polygon class="cls-66" points="603.13 364.28 909.27 364.28 910.41 351.75 600.86 354.88 603.13 364.28"/><polygon class="cls-127" points="903.96 388.96 906.17 364.05 606.2 364.05 608.04 387.94 612.03 387.74 612.83 369.64 900.64 370.15 900.32 389.21 903.96 388.96"/><polygon class="cls-109" points="610.25 354.89 608.78 331 905.06 331.51 903.22 351.84 610.25 354.89"/><polygon class="cls-127" points="610.25 354.89 608.78 331 905.06 331.51 903.22 351.84 899.25 351.57 899.79 338.8 612.38 337.09 613.62 352.5 610.25 354.89"/><polygon class="cls-100" points="607.31 333.54 604.54 323.24 908.1 320.96 906.72 333.54 607.31 333.54"/><polygon class="cls-66" points="607.31 333.54 604.54 323.24 908.1 320.96 906.72 333.54 607.31 333.54"/><polygon class="cls-122" points="600.86 354.88 605.78 349.66 904.73 346.52 910.41 351.75 600.86 354.88"/><polygon class="cls-112" points="604.54 323.24 614.68 315.07 899.79 315.07 908.1 320.96 604.54 323.24"/><polygon class="cls-123" points="609.54 299.78 606.95 290.12 900.92 288.55 899.54 299.22 609.54 299.78"/><polygon class="cls-66" points="609.54 299.78 606.95 290.12 901.2 288.16 899.26 299.22 609.54 299.78"/><polygon class="cls-99" points="606.95 290.12 618.36 283.21 888.5 282.44 900.92 288.55 606.95 290.12"/><polygon class="cls-127" points="921.9 249.11 940.65 255.35 937.51 277.28 948.37 279.32 954 280.58 957.77 265.62 949.91 264.32 952.35 240.57 921.95 231.63 921.9 249.11"/><polygon class="cls-127" points="949.52 257 949.29 238.68 1324.32 238.29 1317.25 255.86 958.71 259.92 949.52 257"/><polygon class="cls-82" points="920.98 231.75 921.6 224.31 952.44 226.54 951.5 240.53 920.98 231.75"/><polygon class="cls-92" points="951.5 240.53 952.44 226.54 1329.15 228.7 1326.32 239.92 951.5 240.53"/><polygon class="cls-66" points="951.5 240.53 952.44 226.54 1329.15 228.7 1326.32 239.92 951.5 240.53"/><polygon class="cls-125" points="921.6 224.31 952 229.19 1329.15 228.7 1287.09 222.85 921.6 224.31"/><g><polygon class="cls-82" points="946.78 260.95 947.38 254.79 977.07 256.64 976.16 268.22 946.78 260.95"/><polygon class="cls-110" points="976.16 268.22 977.07 256.64 1346.94 255.86 1344.22 265.15 976.16 268.22"/><polygon class="cls-66" points="975.46 267.89 976.36 256.32 1346.23 255.53 1343.51 264.82 975.46 267.89"/><polygon class="cls-85" points="947.38 254.79 976.64 258.83 1346.94 255.86 1318.19 253.58 947.38 254.79"/></g><g><polygon class="cls-82" points="965.43 294.08 964.9 286.51 995.91 287.53 994.97 301.52 965.43 294.08"/><polygon class="cls-128" points="994.97 301.52 995.91 287.53 1372.62 289.69 1369.8 300.91 994.97 301.52"/><polygon class="cls-66" points="994.97 301.52 995.91 287.53 1372.62 289.69 1369.8 300.91 994.97 301.52"/><polygon class="cls-86" points="965.25 286.76 995.47 290.17 1372.62 289.69 1330.56 283.83 965.25 286.76"/></g><g><polygon class="cls-82" points="987.58 327.9 987.05 320.34 1018.06 321.36 1017.12 335.34 987.58 327.9"/><polygon class="cls-75" points="1017.12 335.34 1018.06 321.36 1394.77 321.56 1391.95 332.78 1017.12 335.34"/><polygon class="cls-66" points="1017.12 335.34 1018.06 321.36 1394.77 321.56 1391.95 332.78 1017.12 335.34"/><polygon class="cls-76" points="987.4 320.59 1017.62 324 1394.77 321.56 1365.08 317.98 987.4 320.59"/></g><g><polygon class="cls-82" points="1010.91 358.15 1010.38 350.59 1032.23 351.61 1031.29 365.59 1010.91 358.15"/><polygon class="cls-103" points="1031.26 365.59 1032.2 351.61 1418.1 351.81 1415.27 363.03 1031.26 365.59"/><polygon class="cls-66" points="1031.29 365.59 1032.23 351.61 1418.1 351.81 1415.27 363.03 1031.29 365.59"/><polygon class="cls-97" points="1010.73 350.83 1031.29 353.44 1418.1 351.81 1388.41 348.23 1010.73 350.83"/></g><polygon class="cls-14" points="921.96 235.47 952.7 244.31 952.35 254.07 945.89 255.11 945.63 264.32 963.66 270.17 973.56 272.61 972.14 286.76 963.66 287.25 962.6 298.96 997.95 306.76 996.18 316.03 984.51 317.5 984.51 332.62 1015.62 337.99 1013.85 346.77 999.36 348.23 998.98 348.68 998.3 359.94 1025.16 367.75 1019.86 390.19 988.4 384.34 995.73 360.78 976.74 354.57 981.59 336.39 961.89 330.18 966.48 306.37 946.87 303.43 954 280.58 937.51 277.28 940.65 255.35 921.9 249.11 921.96 235.47"/><g><polygon class="cls-87" points="957.65 251.14 957.3 244.8 1317.13 243.34 1315.01 250.65 957.65 251.14"/><polygon class="cls-87" points="976.39 286.27 977.8 274.07 1331.62 270.17 1328.09 283.34 976.39 286.27"/><polygon class="cls-87" points="1002.19 320.42 1003.25 307.25 1359.55 306.27 1357.07 317.98 1002.19 320.42"/><polygon class="cls-87" points="1021.98 350.18 1022.69 338.47 1383.93 335.55 1380.4 347.26 1021.98 350.18"/><polygon class="cls-87" points="1033.52 389.22 1034.05 371.38 1404.79 368.72 1402.76 388.17 1033.52 389.22"/></g><path class="cls-12" d="M1112.64,326.21l-87.48,.56-1.41,5.37,86.62-.4c.79-1.82,1.56-3.65,2.27-5.52Z"/><path class="cls-30" d="M1131.75,325.94l-17.49,.24c-.7,1.87-1.45,3.71-2.23,5.53l17.25-.18c.83-1.86,1.65-3.72,2.47-5.59Z"/><path class="cls-18" d="M1133.43,325.92c-.81,1.87-1.64,3.74-2.46,5.6l257.68-1.18,2.71-6.02-257.92,1.59Z"/><path class="cls-28" d="M1057.09,356.61l-22.74,.41-.71,6.83,21.34-.33c.73-2.28,1.44-4.58,2.1-6.91Z"/><path class="cls-15" d="M1124.69,356.24l-66.06,.34c-.66,2.33-1.35,4.63-2.07,6.91l65.31-.28c.93-2.33,1.87-4.66,2.82-6.97Z"/><path class="cls-51" d="M1126.35,356.21c-.96,2.32-1.9,4.64-2.83,6.98l289.75-2.27,1.41-7.32-288.33,2.61Z"/><path class="cls-6" d="M1126.32,292.23c-1.02,2.09-2.05,4.17-3.09,6.24h12.47c.55-2.12,1.12-4.24,1.69-6.36l-11.08,.12Z"/><path class="cls-39" d="M1119.92,292.3l-122.33,.8v5.37h120.01c.79-2.04,1.56-4.1,2.31-6.17Z"/><path class="cls-34" d="M1363.53,291.22c-.95,2.45-1.99,4.85-3.04,7.25h7.54l2.12-7.32-6.61,.07Z"/><path class="cls-52" d="M1359.74,291.26c-.63,2.46-1.38,4.86-2.22,7.21h1.31c1.05-2.4,2.1-4.79,3.07-7.23l-2.16,.02Z"/><path class="cls-60" d="M1357.38,291.29l-218.21,.81c-.58,1.75-1.14,3.52-1.66,5.3-.09,.36-.19,.71-.29,1.07h216.73c1.1-2.43,2.24-4.83,3.42-7.18Z"/><path class="cls-23" d="M1130.28,259.38s-.01,.04-.02,.06c-.83,1.6-1.67,3.19-2.52,4.76l14.05-.26c.7-1.64,1.43-3.26,2.2-4.84l-13.71,.27Z"/><path class="cls-35" d="M1120.64,259.58l-142.77,1.91-.89,4.65,140.83-1.74c.91-1.64,1.86-3.24,2.82-4.82Z"/><path class="cls-22" d="M1150.47,258.98c-.76,1.66-1.58,3.26-2.43,4.85l193.64-.95,1.96-4.91-193.17,1.01Z"/><path class="cls-19" d="M975.2,232.33l-21.2,.11-.47,6.18,18.77-.03c.98-2.07,1.95-4.16,2.9-6.26Z"/><path class="cls-27" d="M978.49,232.31c-.95,2.1-1.9,4.19-2.87,6.27l147.78-.18c1.74-2.15,3.43-4.35,5.07-6.64l-149.98,.55Z"/><path class="cls-8" d="M1149.33,231.65l-10.18,.05c-1.38,2.31-2.82,4.53-4.32,6.68l10.67-.02c1.28-2.21,2.57-4.44,3.83-6.71Z"/><path class="cls-49" d="M1159.11,231.6c-1.14,2.29-2.33,4.53-3.55,6.75l168.76-.05,1.89-6.83-167.1,.13Z"/><polygon class="cls-10" points="617.62 266 615.94 261.54 892.5 259.85 891.32 266.49 617.62 266"/><polygon class="cls-53" points="610.66 297.2 608.87 292.72 899.1 291.02 897.83 297.7 610.66 297.2"/><polygon class="cls-32" points="609.31 330.77 607.46 325.91 905.69 324.07 904.39 331.31 609.31 330.77"/><polygon class="cls-42" points="605.82 362.28 603.92 356.26 907.46 353.98 906.12 362.95 605.82 362.28"/></g><polygon class="cls-127" points="1336.92 264.8 1330.56 283.83 974.26 286.76 975.46 267.89 1336.92 264.8"/><polygon class="cls-127" points="1366.14 298.63 1362.73 318.63 988.64 323.19 990.99 299.77 1366.14 298.63"/><polygon class="cls-127" points="950.23 259.44 976.74 267.73 975.15 293.34 991.94 299.12 989.58 323.19 1010.79 331.64 1388.65 330.34 1383.58 349.21 1014.56 351.16 1018.33 353.11 1409.62 355.71 1407.26 388.01 1014.56 390.19 989.21 383.64 973.79 359.94 938.92 292.61 950.23 259.44"/><g><path class="cls-109" d="M865.7,247.73l56.2,1.39s21.26,6.23,18.75,6.23-76.96-1.39-76.96-1.39l2.01-6.23Z"/><polygon class="cls-117" points="941.36 255.35 937.46 277.51 862.18 278.21 861.68 253.96 941.36 255.35"/></g><g><path class="cls-109" d="M876.21,275.43l61.18,1.73s18.89,3.58,16.38,3.58-79.56,.93-79.56,.93l2.01-6.23Z"/><polygon class="cls-117" points="954 280.66 946.87 303.43 873.53 302.7 872.2 281.67 954 280.66"/></g><g><path class="cls-109" d="M889.76,301.76l56.2,1.39s20.54,3.07,20.52,3.23c0,.07-78.73,1.62-78.73,1.62l2.01-6.23Z"/><polygon class="cls-117" points="966.48 306.37 961.02 332.23 887.75 330.16 885.75 307.99 966.48 306.37"/></g><g><path class="cls-109" d="M903.81,328.77l56.2,1.39s24.09,6.23,21.58,6.23-79.79-1.39-79.79-1.39l2.01-6.23Z"/><polygon class="cls-117" points="981.59 336.39 975.07 359.25 899.8 359.94 899.8 335 981.59 336.39"/></g><g><path class="cls-109" d="M892.74,353.17l81.41,1.39s24.09,6.23,21.58,6.23-105-1.39-105-1.39l2.01-6.23Z"/><polygon class="cls-117" points="995.73 360.78 989.21 383.64 888.73 384.34 888.73 359.4 995.73 360.78"/></g><polygon class="cls-109" points="623.95 255.04 623.71 236.88 882.55 237.03 881.06 253.55 623.95 255.04"/><polygon class="cls-127" points="624.19 255.37 623.71 236.52 882.55 237.03 881.06 253.55 877.83 253.33 878.27 242.95 626.82 243.15 627.06 254.71 624.19 255.37"/><polygon class="cls-83" points="622.78 238.68 620.53 230.31 884.96 228.95 883.76 238.2 622.78 238.68"/><polygon class="cls-66" points="622.78 238.68 620.53 230.31 885.19 228.62 883.52 238.2 622.78 238.68"/><polygon class="cls-38" points="624.9 237.7 623.36 233.24 883.07 230.57 880.69 236.25 624.9 237.7"/><polygon class="cls-54" points="620.53 230.31 642.79 224.99 867.69 224.47 884.96 228.95 620.53 230.31"/><polygon class="cls-109" points="617.26 286.36 617 266.66 891.52 266.82 889.9 284.74 617.26 286.36"/><polygon class="cls-127" points="617.52 286.71 617 266.27 891.52 266.82 889.9 284.74 886.4 284.5 886.87 273.25 620.37 273.46 620.63 286 617.52 286.71"/><polygon class="cls-57" points="615.98 268.61 613.55 259.54 894.12 258.06 892.83 268.09 615.98 268.61"/><polygon class="cls-66" points="615.98 268.61 613.55 259.54 894.38 257.7 892.57 268.09 615.98 268.61"/><polygon class="cls-105" points="613.55 259.54 624.26 253.05 882.46 252.33 894.12 258.06 613.55 259.54"/><polygon class="cls-109" points="612.4 319.45 610.62 297.7 898.15 297.87 896.42 316.95 612.4 319.45"/><polygon class="cls-127" points="612.05 319.2 610.47 297.32 898.15 297.87 896.42 316.95 892.7 316.7 893.2 304.71 614.21 304.94 614.49 318.29 612.05 319.2"/><polygon class="cls-109" points="608.04 387.94 606.2 364.05 906.17 364.05 903.96 388.96 608.04 387.94"/><polygon class="cls-129" points="603.01 364.13 909.15 364.13 910.29 351.76 600.74 354.85 603.01 364.13"/><polygon class="cls-66" points="603.13 364.28 909.27 364.28 910.41 351.75 600.86 354.88 603.13 364.28"/><polygon class="cls-127" points="903.96 388.96 906.17 364.05 606.2 364.05 608.04 387.94 612.03 387.74 612.83 369.64 900.64 370.15 900.32 389.21 903.96 388.96"/><polygon class="cls-109" points="610.25 354.89 608.78 331 905.06 331.51 903.22 351.84 610.25 354.89"/><polygon class="cls-127" points="610.25 354.89 608.78 331 905.06 331.51 903.22 351.84 899.25 351.57 899.79 338.8 612.38 337.09 613.62 352.5 610.25 354.89"/><polygon class="cls-126" points="607.31 333.54 604.54 323.24 908.1 320.96 906.72 333.54 607.31 333.54"/><polygon class="cls-66" points="607.31 333.54 604.54 323.24 908.1 320.96 906.72 333.54 607.31 333.54"/><polygon class="cls-88" points="600.86 354.88 605.78 349.66 904.73 346.52 910.41 351.75 600.86 354.88"/><polygon class="cls-95" points="604.54 323.24 614.68 315.07 899.79 315.07 908.1 320.96 604.54 323.24"/><polygon class="cls-108" points="609.54 299.78 606.95 290.12 900.92 288.55 899.54 299.22 609.54 299.78"/><polygon class="cls-66" points="609.54 299.78 606.95 290.12 901.2 288.16 899.26 299.22 609.54 299.78"/><polygon class="cls-120" points="606.95 290.12 618.36 283.21 888.5 282.44 900.92 288.55 606.95 290.12"/><polygon class="cls-127" points="921.9 249.11 940.65 255.35 937.51 277.28 948.37 279.32 954 280.58 957.77 265.62 949.91 264.32 952.35 240.57 921.95 231.63 921.9 249.11"/><polygon class="cls-127" points="949.52 257 949.29 238.68 1324.32 238.29 1317.25 255.86 958.71 259.92 949.52 257"/><polygon class="cls-107" points="920.98 231.75 921.6 224.31 952.44 226.54 951.5 240.53 920.98 231.75"/><polygon class="cls-84" points="951.5 240.53 952.44 226.54 1329.15 228.7 1326.32 239.92 951.5 240.53"/><polygon class="cls-66" points="951.5 240.53 952.44 226.54 1329.15 228.7 1326.32 239.92 951.5 240.53"/><polygon class="cls-111" points="921.6 224.31 952 229.19 1329.15 228.7 1287.09 222.85 921.6 224.31"/><polygon class="cls-107" points="946.78 260.95 947.38 254.79 977.07 256.64 976.16 268.22 946.78 260.95"/><polygon class="cls-118" points="976.16 268.22 977.07 256.64 1346.94 255.86 1344.22 265.15 976.16 268.22"/><polygon class="cls-66" points="975.46 267.89 976.36 256.32 1346.23 255.53 1343.51 264.82 975.46 267.89"/><polygon class="cls-113" points="947.38 254.79 976.64 258.83 1346.94 255.86 1318.19 253.58 947.38 254.79"/><polygon class="cls-107" points="965.43 294.08 964.9 286.51 995.91 287.53 994.97 301.52 965.43 294.08"/><polygon class="cls-94" points="994.97 301.52 995.91 287.53 1372.62 289.69 1369.8 300.91 994.97 301.52"/><polygon class="cls-66" points="994.97 301.52 995.91 287.53 1372.62 289.69 1369.8 300.91 994.97 301.52"/><polygon class="cls-114" points="965.25 286.76 995.47 290.17 1372.62 289.69 1330.56 283.83 965.25 286.76"/><polygon class="cls-107" points="987.58 327.9 987.05 320.34 1018.06 321.36 1017.12 335.34 987.58 327.9"/><polygon class="cls-72" points="1017.12 335.34 1018.06 321.36 1394.77 321.56 1391.95 332.78 1017.12 335.34"/><polygon class="cls-66" points="1017.12 335.34 1018.06 321.36 1394.77 321.56 1391.95 332.78 1017.12 335.34"/><polygon class="cls-98" points="987.4 320.59 1017.62 324 1394.77 321.56 1365.08 317.98 987.4 320.59"/><polygon class="cls-107" points="1010.91 358.15 1010.38 350.59 1032.23 351.61 1031.29 365.59 1010.91 358.15"/><polygon class="cls-93" points="1031.26 365.59 1032.2 351.61 1418.1 351.81 1415.27 363.03 1031.26 365.59"/><polygon class="cls-66" points="1031.29 365.59 1032.23 351.61 1418.1 351.81 1415.27 363.03 1031.29 365.59"/><polygon class="cls-102" points="1010.73 350.83 1031.29 353.44 1418.1 351.81 1388.41 348.23 1010.73 350.83"/><polygon class="cls-5" points="921.96 236.99 953.42 244.31 953.06 254.07 946.61 255.11 946.35 264.32 964.37 270.17 974.27 272.61 972.86 286.76 964.37 287.25 963.31 298.96 998.66 306.76 996.89 316.03 985.23 317.5 985.23 332.62 1016.33 337.99 1014.56 346.77 1000.07 348.23 999.69 348.68 999.01 359.94 1025.87 367.75 1020.57 390.19 989.11 384.34 996.44 360.78 977.45 354.57 982.31 336.39 962.61 330.18 967.19 306.37 947.58 303.43 954.71 280.58 938.23 277.28 941.36 255.35 922.61 249.11 921.96 236.99"/><g><polygon class="cls-109" points="957.65 251.14 957.3 244.8 1317.13 243.34 1315.01 250.65 957.65 251.14"/><polygon class="cls-109" points="976.39 286.27 977.8 274.07 1331.62 270.17 1328.09 283.34 976.39 286.27"/><polygon class="cls-109" points="1002.19 320.42 1003.25 307.25 1359.55 306.27 1357.07 317.98 1002.19 320.42"/><polygon class="cls-109" points="1021.98 350.18 1022.69 338.47 1383.93 335.55 1380.4 347.26 1021.98 350.18"/><polygon class="cls-109" points="1033.52 389.22 1034.05 371.38 1404.79 368.72 1402.76 388.17 1033.52 389.22"/></g><path class="cls-41" d="M1112.64,326.21l-87.48,.56-1.41,5.37,86.62-.4c.79-1.82,1.56-3.65,2.27-5.52Z"/><path class="cls-3" d="M1131.75,325.94l-17.49,.24c-.7,1.87-1.45,3.71-2.23,5.53l17.25-.18c.83-1.86,1.65-3.72,2.47-5.59Z"/><path class="cls-25" d="M1133.43,325.92c-.81,1.87-1.64,3.74-2.46,5.6l257.68-1.18,2.71-6.02-257.92,1.59Z"/><path class="cls-20" d="M1057.09,356.61l-22.74,.41-.71,6.83,21.34-.33c.73-2.28,1.44-4.58,2.1-6.91Z"/><path class="cls-37" d="M1124.69,356.24l-66.06,.34c-.66,2.33-1.35,4.63-2.07,6.91l65.31-.28c.93-2.33,1.87-4.66,2.82-6.97Z"/><path class="cls-2" d="M1126.35,356.21c-.96,2.32-1.9,4.64-2.83,6.98l289.75-2.27,1.41-7.32-288.33,2.61Z"/><path class="cls-50" d="M1126.32,292.23c-1.02,2.09-2.05,4.17-3.09,6.24h12.47c.55-2.12,1.12-4.24,1.69-6.36l-11.08,.12Z"/><path class="cls-17" d="M1119.92,292.3l-122.33,.8v5.37h120.01c.79-2.04,1.56-4.1,2.31-6.17Z"/><path class="cls-29" d="M1363.53,291.22c-.95,2.45-1.99,4.85-3.04,7.25h7.54l2.12-7.32-6.61,.07Z"/><path class="cls-26" d="M1359.74,291.26c-.63,2.46-1.38,4.86-2.22,7.21h1.31c1.05-2.4,2.1-4.79,3.07-7.23l-2.16,.02Z"/><path class="cls-43" d="M1357.38,291.29l-218.21,.81c-.58,1.75-1.14,3.52-1.66,5.3-.09,.36-.19,.71-.29,1.07h216.73c1.1-2.43,2.24-4.83,3.42-7.18Z"/><path class="cls-45" d="M1130.28,259.38s-.01,.04-.02,.06c-.83,1.6-1.67,3.19-2.52,4.76l14.05-.26c.7-1.64,1.43-3.26,2.2-4.84l-13.71,.27Z"/><path class="cls-36" d="M1120.64,259.58l-142.77,1.91-.89,4.65,140.83-1.74c.91-1.64,1.86-3.24,2.82-4.82Z"/><path class="cls-40" d="M1150.47,258.98c-.76,1.66-1.58,3.26-2.43,4.85l193.64-.95,1.96-4.91-193.17,1.01Z"/><path class="cls-21" d="M975.2,232.33l-21.2,.11-.47,6.18,18.77-.03c.98-2.07,1.95-4.16,2.9-6.26Z"/><path class="cls-4" d="M978.49,232.31c-.95,2.1-1.9,4.19-2.87,6.27l147.78-.18c1.74-2.15,3.43-4.35,5.07-6.64l-149.98,.55Z"/><path class="cls-1" d="M1149.33,231.65l-10.18,.05c-1.38,2.31-2.82,4.53-4.32,6.68l10.67-.02c1.28-2.21,2.57-4.44,3.83-6.71Z"/><path class="cls-47" d="M1159.11,231.6c-1.14,2.29-2.33,4.53-3.55,6.75l168.76-.05,1.89-6.83-167.1,.13Z"/><polygon class="cls-48" points="617.62 266 615.94 261.54 892.5 259.85 891.32 266.49 617.62 266"/><polygon class="cls-16" points="610.66 297.2 608.87 292.72 899.1 291.02 897.83 297.7 610.66 297.2"/><polygon class="cls-33" points="609.31 330.77 607.46 325.91 905.69 324.07 904.39 331.31 609.31 330.77"/><polygon class="cls-7" points="605.82 362.28 603.92 356.26 907.46 353.98 906.12 362.95 605.82 362.28"/></g><g id="science_fair_banner"><path id="Banner" class="cls-63" d="M467.44-7.71s170.95,22.79,242.17,22.79c59.61,0,258.39-20.65,258.39-20.65V96.25s-175.87,14.24-257.64,14.24c-76.06,0-242.92-16.38-242.92-16.38V-7.71Z"/><g id="Banner-2"><path class="cls-58" d="M467.44-14.83S638.39,7.96,709.61,7.96c59.61,0,258.39-20.65,258.39-20.65V89.13s-175.87,14.24-257.64,14.24c-76.06,0-242.92-16.38-242.92-16.38V-14.83Z"/></g><g><path class="cls-67" d="M517.69,59.95c-.63,9.7-9,17.06-18.62,16.44-9.61-.62-16.97-9-16.34-18.7,.15-2.36,2.21-4.25,4.65-4.09,2.45,.16,4.24,2.29,4.09,4.65-.32,4.89,3.36,9.08,8.17,9.39,4.81,.31,8.99-3.37,9.31-8.26,.31-4.81-3.37-9-8.17-9.31-9.61-.62-16.98-8.91-16.35-18.61,.62-9.61,9-16.97,18.61-16.35,9.61,.62,16.97,9,16.35,18.61-.16,2.45-2.21,4.25-4.65,4.09-2.36-.15-4.25-2.21-4.09-4.65,.31-4.81-3.37-9-8.17-9.31-4.81-.31-8.99,3.37-9.31,8.17-.31,4.81,3.37,9,8.17,9.31,9.61,.62,16.97,9,16.35,18.61Z"/><path class="cls-67" d="M525.46,56.06c.75-12.15,11.15-21.34,23.21-20.59,7.87,.49,14.86,5.13,18.38,12.11,1.09,2.17,.14,4.75-1.94,5.85-2.17,1.01-4.75,.14-5.85-1.94-2.11-4.25-6.32-7.06-11.13-7.36-7.26-.45-13.66,5.12-14.11,12.46-.45,7.26,5.21,13.66,12.46,14.11,4.55,.28,8.88-1.73,11.57-5.43,1.44-1.93,4.18-2.29,6.11-.94,1.93,1.44,2.29,4.18,.85,6.11-4.41,6.04-11.55,9.38-19.07,8.91-12.06-.75-21.24-11.23-20.49-23.3Z"/><path class="cls-67" d="M573.81,76.66l2.09-35.24c.14-2.36,2.18-4.17,4.63-4.02,2.36,.14,4.17,2.18,4.03,4.54l-2.09,35.24c-.15,2.45-2.18,4.26-4.54,4.12-2.45-.15-4.26-2.18-4.11-4.63Zm4.25-49.41c-.74-.83-1.2-2-1.13-3.14,.07-1.14,.66-2.24,1.49-2.98s2-1.2,3.14-1.13,2.24,.66,2.98,1.49,1.11,2,1.04,3.13c-.07,1.14-.57,2.25-1.41,2.99-.83,.74-2,1.11-3.13,1.04-1.14-.07-2.25-.57-2.99-1.41Z"/><path class="cls-67" d="M635.15,62.45c-.13,2.36-2.16,4.18-4.61,4.04l-30.17-1.68c1.54,5.35,6.23,9.38,12.09,9.71,2.01,.11,5.61,.14,9.96-2.34,2.08-1.2,4.73,.18,5.66,2.33,.93,2.24-.34,4.46-2.42,5.65-5.99,3.53-10.44,3.19-13.68,3.01-12.16-.68-21.4-11.11-20.72-23.18,.68-12.16,11.02-21.4,23.18-20.72,10.58,.59,21.52,8.92,20.72,23.17Zm-34.3-6.3l25.27,1.41c-1.49-6.22-6.94-9.33-12.18-9.63-5.86-.33-10.97,3.16-13.09,8.22Z"/><path class="cls-67" d="M686.59,64.92l-.82,17.59c-.11,2.45-2.13,4.29-4.58,4.17-2.36-.11-4.2-2.12-4.08-4.57l.82-17.59c.34-7.35-5.33-13.58-12.68-13.92-7.35-.34-13.58,5.33-13.92,12.68l-.82,17.59c-.11,2.45-2.13,4.28-4.58,4.17-2.36-.11-4.2-2.12-4.08-4.57l.82-17.59c.57-12.16,10.91-21.5,22.98-20.94,12.07,.56,21.5,10.82,20.94,22.98Z"/><path class="cls-67" d="M694.44,65.56c.07-12.17,9.94-21.92,22.03-21.85,7.88,.05,15.13,4.3,19.03,11.06,1.21,2.11,.41,4.73-1.61,5.95-2.11,1.13-4.73,.41-5.95-1.61-2.34-4.13-6.7-6.7-11.52-6.73-7.27-.04-13.35,5.87-13.39,13.23-.04,7.27,5.96,13.35,13.23,13.39,4.55,.03,8.77-2.22,11.25-6.06,1.33-2.01,4.04-2.52,6.05-1.28,2.01,1.33,2.52,4.04,1.19,6.05-4.07,6.28-11.01,10.01-18.54,9.96-12.09-.07-21.84-10.03-21.76-22.12Z"/><path class="cls-67" d="M786.5,64.01c.08,2.36-1.78,4.35-4.24,4.43l-30.2,1c2.01,5.19,7.04,8.79,12.9,8.6,2.01-.07,5.6-.36,9.71-3.21,1.97-1.38,4.72-.24,5.84,1.82,1.12,2.15,.06,4.47-1.91,5.85-5.65,4.04-10.12,4.1-13.36,4.21-12.17,.4-22.3-9.17-22.7-21.25-.4-12.17,9.08-22.3,21.25-22.7,10.59-.35,22.23,6.98,22.7,21.25Zm-34.72-3.24l25.3-.83c-2.04-6.07-7.74-8.68-12.99-8.51-5.87,.19-10.64,4.12-12.31,9.34Z"/><path class="cls-67" d="M858.53,25.09c.15,2.45-1.75,4.49-4.11,4.63l-26.05,1.56,1.06,17.57,19.84-1.19c2.36-.14,4.49,1.66,4.63,4.11s-1.75,4.49-4.11,4.63l-19.84,1.19,1.3,21.59c.15,2.45-1.75,4.49-4.11,4.63-2.45,.15-4.49-1.66-4.63-4.11l-3.14-52.28c-.15-2.45,1.66-4.49,4.11-4.63h.09l.17-.02,30.16-1.81c2.36-.14,4.49,1.66,4.63,4.11Z"/><path class="cls-67" d="M905.5,57.06l1.21,17.12c.18,2.53-1.53,4.5-4.06,4.68-1.75,.12-4.32-1.54-4.5-4.07-3.53,3.41-7.64,4.93-12.62,5.28-12.32,.87-22.75-7.61-23.62-19.93s8.22-22.79,20.54-23.67c12.32-.87,22.18,8.26,23.05,20.58Zm-8.56,.61c-.52-7.34-6.55-13.15-13.89-12.63-7.34,.52-13.1,7.16-12.58,14.5,.52,7.34,7.12,12.49,14.45,11.97s12.53-6.51,12.01-13.84Z"/><path class="cls-67" d="M913.47,24.09c-.85-.72-1.46-1.82-1.55-2.95-.09-1.14,.35-2.31,1.07-3.16,.72-.85,1.82-1.46,2.95-1.55s2.31,.35,3.16,1.07c.85,.72,1.37,1.83,1.46,2.96,.09,1.14-.26,2.3-.98,3.15-.72,.85-1.83,1.37-2.96,1.46s-2.3-.26-3.15-.98Zm2.54,49.52l-2.74-35.19c-.18-2.36,1.59-4.43,4.03-4.62,2.36-.18,4.43,1.59,4.61,3.94l2.74,35.19c.19,2.44-1.58,4.52-3.94,4.7-2.44,.19-4.52-1.58-4.71-4.03Z"/><path class="cls-67" d="M957.28,34.85c.2,2.36-1.56,4.52-4,4.73-7.33,.61-12.77,7.03-12.17,14.37l1.45,17.54c.2,2.36-1.56,4.52-3.92,4.72-2.44,.2-4.53-1.65-4.73-4l-1.45-17.54c-1.01-12.13,8.05-22.72,20.09-23.72,2.44-.2,4.52,1.56,4.72,3.92Z"/></g></g><g id="Table_Legs_copy"><path class="cls-81" d="M1041.42,381.22h-354.59c-2.29,0-4.17,1.94-4.17,4.31v88.49c0,2.37,1.88,4.31,4.17,4.31h354.59c2.29,0,4.17-1.94,4.17-4.31v-88.49c0-2.37-1.88-4.31-4.17-4.31Zm-4.63,84.84c0,2.37-1.88,4.31-4.17,4.31h-336.2c-2.29,0-4.17-1.94-4.17-4.31v-79.79c0-2.37,1.88-4.31,4.17-4.31h336.2c2.29,0,4.17,1.94,4.17,4.31v79.79Z"/><path class="cls-124" d="M1149.63,416.12h-416.38c-2.69,0-4.9,2.2-4.9,4.9v100.58c0,2.69,2.2,4.9,4.9,4.9h416.38c2.69,0,4.9-2.2,4.9-4.9v-100.58c0-2.69-2.2-4.9-4.9-4.9Zm-5.43,96.43c0,2.69-2.2,4.9-4.9,4.9h-394.79c-2.69,0-4.9-2.2-4.9-4.9v-90.69c0-2.69,2.2-4.9,4.9-4.9h394.79c2.69,0,4.9,2.2,4.9,4.9v90.69Z"/><path class="cls-81" d="M168.56,385.53v88.49c0,2.37,1.88,4.31,4.17,4.31h354.59c2.29,0,4.17-1.94,4.17-4.31v-88.49c0-2.37-1.88-4.31-4.17-4.31H172.73c-2.29,0-4.17,1.94-4.17,4.31Zm8.8,.74c0-2.37,1.88-4.31,4.17-4.31h336.2c2.29,0,4.17,1.94,4.17,4.31v79.79c0,2.37-1.88,4.31-4.17,4.31H181.52c-2.29,0-4.17-1.94-4.17-4.31v-79.79Z"/><path class="cls-124" d="M55.54,428.14v100.58c0,2.69,2.2,4.9,4.9,4.9H476.81c2.69,0,4.9-2.2,4.9-4.9v-100.58c0-2.69-2.2-4.9-4.9-4.9H60.43c-2.69,0-4.9,2.2-4.9,4.9Zm10.33,.84c0-2.69,2.2-4.9,4.9-4.9H465.55c2.69,0,4.9,2.2,4.9,4.9v90.69c0,2.69-2.2,4.9-4.9,4.9H70.76c-2.69,0-4.9-2.2-4.9-4.9v-90.69Z"/><path class="cls-81" d="M1615.81,381.22h-354.59c-2.29,0-4.17,1.94-4.17,4.31v88.49c0,2.37,1.88,4.31,4.17,4.31h354.59c2.29,0,4.17-1.94,4.17-4.31v-88.49c0-2.37-1.88-4.31-4.17-4.31Zm-4.63,84.84c0,2.37-1.88,4.31-4.17,4.31h-336.2c-2.29,0-4.17-1.94-4.17-4.31v-79.79c0-2.37,1.88-4.31,4.17-4.31h336.2c2.29,0,4.17,1.94,4.17,4.31v79.79Z"/><path class="cls-124" d="M1773.87,423.24h-416.38c-2.69,0-4.9,2.2-4.9,4.9v100.58c0,2.69,2.2,4.9,4.9,4.9h416.38c2.69,0,4.9-2.2,4.9-4.9v-100.58c0-2.69-2.2-4.9-4.9-4.9Zm-5.43,96.43c0,2.69-2.2,4.9-4.9,4.9h-394.79c-2.69,0-4.9-2.2-4.9-4.9v-90.69c0-2.69,2.2-4.9,4.9-4.9h394.79c2.69,0,4.9,2.2,4.9,4.9v90.69Z"/><path class="cls-81" d="M792.8,385.53v88.49c0,2.37,1.88,4.31,4.17,4.31h254.91c2.29,0,4.17-1.94,4.17-4.31v-88.49c0-2.37-1.88-4.31-4.17-4.31h-254.91c-2.29,0-4.17,1.94-4.17,4.31Zm8.8,.74c0-2.37,1.88-4.31,4.17-4.31h236.52c2.29,0,4.17,1.94,4.17,4.31v79.79c0,2.37-1.88,4.31-4.17,4.31h-236.52c-2.29,0-4.17-1.94-4.17-4.31v-79.79Z"/></g><g id="TABLE_TOP_copy"><path class="cls-91" d="M705.1,435.28v15.5c0,.07-.6-.44-1.01-.83h0c-.22-.2-.38-.37-.4-.41l-46.33-70.16v-10.16s0-.02,0-.02c0,0,0-.01,0-.02,.02-.04,.09-.04,.11,0,0,0,0,.01,.01,.02l47.06,64.51,.53,1.57Z"/><path class="cls-73" d="M1190.64,433.24h-484.81c-.48,0-.92,.18-1.26,.47l-47.06-64.51s3.13-.01,3.13-.02l383.13,.41,146.89,63.65Z"/><path class="cls-104" d="M1190.64,433.24v18.36h-484.07c-1.12,0-2.08-.68-2.48-1.65h0c-.14-.33-.21-.68-.21-1.05v-13.71c0-.6,.27-1.13,.69-1.49,.34-.29,.78-.47,1.26-.47h484.81Z"/><path class="cls-91" d="M505.99,433.24l-1.02,17.54c-.03,.07,.8-.44,1.4-.83h0c.31-.2,.56-.37,.59-.41l52.2-74.65-.64-5.27s0-.02,0-.02c0,0,0-.01,0-.02,0-.04-.07-.04-.11,0-.01,0-.01,.01-.02,.02l-52.4,63.63h0Z"/><path class="cls-73" d="M27.65,433.24s477.31,.12,477.52,.41l53.22-64.04s-3.13-.01-3.12-.02l-359.05-4.08L27.65,433.24Z"/><path class="cls-104" d="M19.43,433.24v18.36H503.49c1.12,0,2.08-.68,2.48-1.65h0c.14-.33,.21-.68,.21-1.05v-13.71c0-.6-.27-1.13-.69-1.49-.34-.29-.78-.47-1.26-.47H19.43Z"/></g><g id="Back_Table"><g><path class="cls-91" d="M1319.07,435.35l-.41,15.44c.05,.07-.89-.44-1.56-.83h0c-.35-.2-.63-.37-.66-.41l-88.52-69.86-.32-10.12s-.01-.02,0-.02c0,0,0-.01,0-.02,0-.04,.06-.04,.11,0,.01,0,.02,.01,.02,.02l89.78,64.23,1.58,1.57Z"/><path class="cls-73" d="M1803.26,433.32h-484.81c-.48,0-.81,.17-.95,.46l-89.78-64.23s3.13-.01,3.11-.02l383.4,.41,189.03,63.38Z"/></g><path class="cls-104" d="M1802.77,433.24v18.36h-484.07c-1.12,0-2.08-.68-2.48-1.65h0c-.14-.33-.21-.68-.21-1.05v-13.71c0-.6,.27-1.13,.69-1.49,.34-.29,.78-.47,1.26-.47h484.81Z"/></g><g id="Table_Legs"><path class="cls-81" d="M1332.99,488.58H714.18c-4,0-7.28,3.38-7.28,7.52v154.43c0,4.13,3.27,7.52,7.28,7.52h618.81c4,0,7.28-3.38,7.28-7.52v-154.43c0-4.13-3.27-7.52-7.28-7.52Zm-8.07,148.06c0,4.13-3.27,7.52-7.28,7.52H730.92c-4,0-7.28-3.38-7.28-7.52v-139.25c0-4.13,3.27-7.52,7.28-7.52h586.72c4,0,7.28,3.38,7.28,7.52v139.25Z"/><path class="cls-124" d="M1521.84,561.93H795.2c-4.7,0-8.54,3.85-8.54,8.54v175.52c0,4.7,3.85,8.54,8.54,8.54h726.64c4.7,0,8.54-3.85,8.54-8.54v-175.52c0-4.7-3.84-8.54-8.54-8.54Zm-9.48,168.28c0,4.7-3.85,8.54-8.54,8.54H814.85c-4.7,0-8.54-3.85-8.54-8.54v-158.26c0-4.7,3.85-8.54,8.54-8.54h688.96c4.7,0,8.54,3.85,8.54,8.54v158.26Z"/><path class="cls-81" d="M-190.27,496.1v154.43c0,4.13,3.27,7.52,7.28,7.52H435.82c4,0,7.28-3.38,7.28-7.52v-154.43c0-4.13-3.27-7.52-7.28-7.52H-182.99c-4,0-7.28,3.38-7.28,7.52Zm15.35,1.29c0-4.13,3.27-7.52,7.28-7.52H419.08c4,0,7.28,3.38,7.28,7.52v139.25c0,4.13-3.27,7.52-7.28,7.52H-167.64c-4,0-7.28-3.38-7.28-7.52v-139.25Z"/><path class="cls-124" d="M-387.51,570.47v175.52c0,4.7,3.84,8.54,8.54,8.54H347.68c4.7,0,8.54-3.85,8.54-8.54v-175.52c0-4.7-3.85-8.54-8.54-8.54H-378.96c-4.7,0-8.54,3.85-8.54,8.54Zm18.02,1.47c0-4.7,3.85-8.54,8.54-8.54H328.02c4.7,0,8.54,3.85,8.54,8.54v158.26c0,4.7-3.85,8.54-8.54,8.54H-360.94c-4.7,0-8.54-3.85-8.54-8.54v-158.26Z"/></g><g id="TABLE_TOP"><path class="cls-91" d="M746.07,582.93v27.06c0,.12-1.04-.78-1.77-1.45h0c-.38-.36-.67-.65-.69-.71l-80.85-122.44v-17.74s0-.03,0-.04c0-.01,0-.02,.01-.03,.04-.08,.16-.08,.2,0,.01,0,.01,.02,.02,.03l82.13,112.57,.93,2.75Z"/><path class="cls-73" d="M1593.4,579.37H747.33c-.84,0-1.61,.31-2.2,.81l-82.13-112.57s5.47-.02,5.45-.03l668.61,.71,256.34,111.08Z"/><path class="cls-104" d="M1593.4,579.37v32.04H748.64c-1.95,0-3.62-1.18-4.34-2.88h0c-.24-.57-.37-1.18-.37-1.83v-23.93c0-1.04,.47-1.97,1.2-2.59,.59-.51,1.36-.81,2.2-.81h846.06Z"/><path class="cls-91" d="M398.59,579.37l-1.77,30.62c-.06,.12,1.4-.78,2.45-1.45h0c.54-.36,.97-.65,1.02-.71l91.1-130.28-1.12-9.19s.01-.03,0-.04c0-.01,0-.02,0-.03,0-.08-.12-.08-.2,0-.02,0-.02,.02-.03,.03l-91.45,111.05h0Z"/><path class="cls-73" d="M-436.16,579.37s832.98,.21,833.33,.71l92.87-111.76s-5.46-.02-5.44-.03l-626.6-7.12-294.16,118.2Z"/><path class="cls-104" d="M-450.52,579.37v32.04H394.24c1.95,0,3.62-1.18,4.34-2.88h0c.24-.57,.37-1.18,.37-1.83v-23.93c0-1.04-.47-1.97-1.2-2.59-.59-.51-1.36-.81-2.2-.81H-450.52Z"/></g><g id="whiteoverlay"><rect class="cls-59" x="-.1" y="-.02" width="1366" height="708"/></g></g></svg>