<?xml version="1.0" encoding="UTF-8"?>
<svg id="Layer_2" data-name="Layer 2" xmlns="http://www.w3.org/2000/svg" width="771" height="895" viewBox="0 0 771 895">
  <defs>
    <style>
      .cls-1 {
        fill: #ddfffb;
      }

      .cls-1, .cls-2, .cls-3, .cls-4 {
        stroke-width: 0px;
      }

      .cls-2 {
        fill: #c4ddbc;
      }

      .cls-3 {
        fill: #b8e5dd;
      }

      .cls-4 {
        fill: #c6ece7;
      }
    </style>
  </defs>
  <g id="Layer_1-2" data-name="Layer 1">
    <g>
      <path class="cls-1" d="M40.83,795.58c15.15.15,30.09,9.49,39.51,24.71,6.16-13.28,17.18-22.05,28.84-25.89,11.66-3.84,23.96-3.18,35.87-.91,21.34,4.08,42.08,13.32,60.81,27.09,2.69,1.98,5.64,4.13,8.7,3.49,2.31-.48,4.22-2.46,6.12-4.19,11.6-10.59,27.05-13.88,40.7-8.68,13.65,5.2,25.19,18.79,30.41,35.79,16.12-11.81,36.72-11.24,53.59-1.33,3.69,2.17,7.19,4.76,10.53,7.68,8.39-10.66,19.64-17.88,31.39-19.94,20.21-3.53,41.04,6.88,56.05,24.59,13.35-19.29,28.36-37.7,47.01-47.35,18.64-9.65,41.66-8.92,57.11,7.59,2.78-30.01,22.81-55.96,46.17-59.81,23.36-3.85,47.85,14.75,56.46,42.89,15.44-29.87,44.04-47.66,71.88-44.73,18.38,1.94,35.93,12.87,49.03,29.48V0H0v821.11c.36-.52.7-1.06,1.04-1.58,9.6-15.04,24.65-24.09,39.8-23.94Z"/>
      <path class="cls-4" d="M276.54,759.22c5.37-5.78,12.63-8.99,19.69-12.03,1.79-23.21,26.15-41.06,46.92-34.38,2.16-8.88,6.71-16.8,12.76-23.22-3.34-2.44-6.84-4.62-10.53-6.43-16.87-8.3-37.48-8.77-53.59,1.11-5.22-14.23-16.76-25.6-30.41-29.96-13.65-4.36-29.1-1.6-40.7,7.26-1.9,1.45-3.81,3.11-6.12,3.51-3.06.53-6.01-1.27-8.7-2.93-18.72-11.52-39.46-19.26-60.81-22.67-11.91-1.91-24.21-2.46-35.87.76-11.66,3.22-22.68,10.56-28.84,21.67-9.42-12.74-24.36-20.56-39.51-20.68-15.15-.12-30.2,7.46-39.8,20.04-.33.44-.68.89-1.04,1.32v139.39c90.69-17.33,182.32-30.97,274.41-40.12.66-.94,1.37-1.83,2.13-2.66Z"/>
      <path class="cls-3" d="M721.97,589.6c-27.84-2.46-56.43,12.44-71.88,37.44-8.6-23.55-33.1-39.13-56.46-35.9-23.36,3.23-43.39,24.95-46.17,50.07-15.45-13.82-38.47-14.43-57.11-6.36s-33.66,23.49-47.01,39.64c-15.02-14.83-35.84-23.54-56.05-20.59-11.75,1.72-23,7.77-31.39,16.69-6.04,6.43-10.6,14.35-12.76,23.22-20.77-6.68-45.13,11.17-46.92,34.38-7.06,3.03-14.32,6.24-19.69,12.03-.76.82-1.47,1.72-2.13,2.66,42.59-4.23,85.28-7.5,128.02-9.72,92.7-4.82,185.63-4.73,278.29,1.12,30.44,1.92,61.27,4.58,90.28,12.89v-132.89c-13.1-13.91-30.65-23.05-49.03-24.68Z"/>
      <path class="cls-2" d="M680.72,724.26c-92.66-5.44-185.59-5.52-278.29-1.04-42.74,2.07-85.43,5.11-128.02,9.05-92.09,8.51-183.72,21.21-274.41,37.35v125.38h771v-158.74c-29.02-7.74-59.85-10.21-90.28-12Z"/>
    </g>
  </g>
</svg>